<?xml version="1.0" encoding="UTF-8"?>
<svg id="Layer_2" data-name="Layer 2" xmlns="http://www.w3.org/2000/svg" viewBox="0 0 2000 2000">
  <defs>
    <style>
      .cls-1 {
        fill: #f8ca10;
      }

      .cls-2 {
        fill: #395a64;
      }

      .cls-3 {
        fill: #2c454e;
      }

      .cls-4 {
        fill: #fdc703;
      }

      .cls-5 {
        fill: #f1f5f6;
      }

      .cls-6 {
        fill: #d9dada;
      }

      .cls-7 {
        fill: #2b3a40;
      }

      .cls-8 {
        fill: #f96a55;
      }

      .cls-9 {
        fill: #f86a55;
      }

      .cls-10 {
        fill: #acacac;
      }

      .cls-11 {
        fill: #ebe8df;
      }

      .cls-12 {
        fill: #3c5c66;
      }

      .cls-13 {
        fill: #2f2f2e;
      }

      .cls-14 {
        fill: #f86a56;
      }

      .cls-15 {
        fill: #1c2f35;
      }

      .cls-16 {
        fill: #1b2e35;
      }

      .cls-17 {
        fill: #a8a8a8;
      }

      .cls-18 {
        fill: #ebebeb;
      }

      .cls-19 {
        fill: #fcc704;
      }

      .cls-20 {
        fill: #c6c6c6;
      }

      .cls-21 {
        fill: #2b454e;
      }

      .cls-22 {
        fill: #ececec;
      }

      .cls-23 {
        fill: #dcdbda;
      }

      .cls-24 {
        fill: #f3b305;
      }
    </style>
  </defs>
  <g id="Layer_1-2" data-name="Layer 1">
    <g>
      <path class="cls-21" d="M781,1144l88.96,417.56c.39,3.31-6.57.46-8.46.46-2.01,0-5.42.94-7.5.98s-4-.03-6,0c-15.96.22-32.04.12-48,0-1.33-.01-2.67,0-4,0-31.42-.23-63.5-.08-95,0-.33,0-.67,0-1,0-19.69.06-40.23-.26-60,0-19.31.25-38.69-.19-58,0,14.65-38.3,29.51-76.68,43.33-115.17,1.19-3.31,4.21-6.06,3.67-9.82-7.99-.03-16.01.03-24,0-49.6-.19-99.26.03-148.86.14-5.77,13.72-10.29,27.98-15.64,41.86-10.59,27.44-21.92,55.29-32.49,83.01l-100.39.06c-.36-.1-2.38-6.12-2.61-7.06-.14-.59.14-1.41,0-2-11.3-49.06-21.47-98.85-32-148-.13-.6.13-1.4,0-2-15.92-74.32-32.34-148.64-48-223-.13-.6.13-1.4,0-2-2.45-11.62-5.3-23.23-7-35,187.65.65,375.36-.87,563,0ZM221.99,1147.99c.72-1.4-.63-2.67-.98-1.99-.72,1.4.63,2.67.98,1.99ZM543.64,1299.37c-32.05-17.76-62.72,14.25-42.47,45.95,17.17,26.88,64.02,26.22,64.44-10,.16-13.8-10.07-29.36-21.97-35.96Z"/>
      <path class="cls-18" d="M1019,1644c-1.63,2.05-7.83,12.89-8.87,15.63-2.59,6.85-4.36,16.97,4.32,19.42l283.98-.11c14.33-1.99,2.24-25.11-2.43-31.94l112,4c.6,12.92.38,31.42,1.92,43.57.24,1.91,1.92.95,2.16,2.87,1.12,8.83-1.04,19.34,1.92,28.57h118c.3-5.06-.42-10.48,0-15.49,1.02-11.86,3.03-24.28,3.89-36.11.59-8.11-.9-16.6,2.11-24.39.06,2.99-.04,6.01,0,9,23.29,1.36,46.74,2.85,70.01,5,.99.09,2.01-.09,3,0,1.44.13,3.73.78,6,1,.66.06,1.34-.06,2,0,22.99,2.22,46.1,4.97,69,8,.96.13,2.04-.13,3,0,23.66,3.21,94.12,13,111.03,26.47,5.78,4.6,5.64,9.45-.11,13.96-19.85,15.6-102.12,26.18-129.93,29.57-.65.08-1.35-.08-2,0-2.63.32-5.56.72-8,1-.98.11-2.02-.11-3,0-22.88,2.61-46.06,5.02-69,7-.99.09-2.01-.08-3,0-2.8.24-5.85.82-8,1-.99.08-2.01-.08-3,0-37.44,3.06-75.74,5.91-113,8-4.3.24-8.7-.23-13,0-49.33,2.66-98.56,4.4-148,6-1.33.04-2.67-.04-4,0-10.01.32-21.19,1.73-31,2-7.97.22-16.02-.2-24,0-20.66.51-41.34.62-62,1-.67.01-1.33-.01-2,0-119.32,2.13-238.67,2.13-358,0-.67-.01-1.33.01-2,0-20.66-.38-41.34-.49-62-1-7.98-.2-16.03.22-24,0-9.81-.27-20.99-1.68-31-2-1.33-.04-2.67.04-4,0-49.44-1.6-98.67-3.34-148-6-4.3-.23-8.7.24-13,0-37.26-2.09-75.56-4.93-113-8-.99-.08-2.01.08-3,0-26.24-2.17-53.56-5-80-8-.98-.11-2.02.11-3,0-2.44-.28-5.37-.68-8-1-.65-.08-1.35.08-2,0-27.81-3.39-110.07-13.97-129.93-29.57-5.75-4.51-5.88-9.36-.11-13.96,16.89-13.45,87.41-23.28,111.03-26.47.96-.13,2.04.13,3,0,16.72-2.21,33.73-4.78,50.55-6.03,1.92-.14,3.78-.02,5.45,1.03-.53,1.6-1.06,3.27-1,4.99,49.32.03,98.68-.02,148,0,75.99.04,152.02-.03,228.01,0,.97-.97-1.49-16.44.99-19.01l257.06-.44c1.64-1.15.88-8.06.94-10.56,4.61-.85,13.56-2.94,17,1Z"/>
      <path class="cls-18" d="M1796,277v9l-252.01.51,1.47,2.5h250.53s0,21.99,0,21.99l-249.55-.05-3.46,2.54,253.01.51v23l-252.01.51,252.01,1.49v23l-252.01.51,252.01,1.49v23l-252.01.51,252.01,1.49v20c-3.54-.38-1.51,1.04-1,3l-251.01.51c-.66,2.32,2.15,1.44,3.5,1.49,81.68,3.25,165.98-2.43,247.51,0h1v23l-249.55-.05-3.46,2.54,253.01-.49v23l-253.01.51,3.46,2.54,249.55-.05v22l-252.56.94.56,579.06h-17l-1.5-580h-271.5l1,279c-4.78.03-11.02,1.89-16,2h-1v-278.5c-.06-4.99-13.7-.97-14.02-3.07v-21.43c3.61.63,6.71-.53,10.02-1,.21-.03,2.8,1.39,4-.01,2.17-2.54-3.28-1.92-5-1.99-3.75-.14-5.28.43-9-1v-2c0-6.32-.01-12.67,0-18.99.55-.52,10.71-.8,12.51-1.01s1.61.31,1.48-2h-14v-22c0-.46,8.29.32,9.01-1.51,1.16-2.96-9.01-.88-9.01-1.49v-23h11c-1.01-3.79-10.16-1.15-11-1.99s.02-19.77,0-23.01c4.52.17,9.18-.69,13.49,1.01.84.05.65-1.68.52-2.51-.18-1.14-12.06-.2-14.01-.51.02-3.23-.82-22.19,0-23.01.23-.23,5.19.07,6.52,0s4.16.83,3.49-1.49c-.39-1.38-9.41.1-10.01-.5-.71-.71.02-17.12,0-20.01,0-.67,0-1.33,0-2-.04-8.65.03-17.35,0-26,4.15-.16,8.38.22,12.53,0,2.07-.11,1.82-.58,1.48-2.5-.2-1.15-12.04-.2-14.01-.51.02-3.32-.02-6.67,0-10,190.46,2.04,381.67,1.21,572,1ZM1527,289l-1.67-2.83c-89.85-.29-179.8-.29-269.65,0l-1.67,2.83h273ZM1234,312c-3.6-.51-9.18-3.35-8.01,2,2.32-.05,4.68.11,7.01,0,1.71-.08,7.17.56,5-1.99-1.2-1.41-3.79.02-4-.01ZM1528,311h-274v3h273c.16,0,.23-2.27,1-3ZM1527,337h-273v2h273v-2ZM1527,362h-272v2h272v-2ZM1527,387h-273v2h273v-2ZM1527,412h-273v2h273v-2ZM1527,437h-273c-.37,2.29,1.59,3.14,3.45,3.05,88.3-1.02,176.9,1.54,265.06-.86,2.95-.08,5.18,3,4.49-2.19ZM1527,462h-273v3h274c-.75-.78-.87-2.9-1-3Z"/>
      <path class="cls-6" d="M1224,276c-8.29-.09-16.93.79-25-1v-46h673v47c-7.98.02-16.02-.03-24,0-10.98.04-22.02-.02-33,0-1.5,0-3.6,0-5,0-3.37,0-7.01,0-10,0-2.04,0-3.79,1-4,1-190.33.21-381.54,1.04-572-1Z"/>
      <path class="cls-17" d="M1694,1067c13.65.04,27.35-.03,41.01,0-.68,7.41.69,14.69.99,22.01.22,5.3-.25,10.7,0,16,2.33,49.33,4.72,98.68,7,148,.26,5.65.74,11.31,1,17,2.42,52.63,5.61,105.72,8,158,.26,5.63-.26,11.37,0,17,2.41,52.97,4.25,106.05,7,159,.18,3.4.84,6.6,1,10,.22,4.64-.15,9.36,0,14-13.98,0-28.02-.07-42,0l-24-561Z"/>
      <path class="cls-2" d="M906,391c7.98-.1,16.02.03,24,0,22.65-.09,45.35.02,68,0,1.33,0,2.67,0,4,0,2,0,4,0,6,0,5.32,0,10.68,0,16,0,46.98-.03,94.02.03,141.01,0,.04,3.32-.06,6.68,0,10.01.43,25.91.32,52.08,0,78-.05,3.99.03,8.02,0,12.01-24.65.01-49.35-.03-74.01,0-1.67,0-3.33,0-5,0l-192-1c-.68-6.62.03-15.1,0-22,0-.67,0-1.33,0-2s0-1.33,0-2c-.07-24.32.05-48.69,0-73.01,3.99-.03,8.02.05,12.01,0ZM998,422v41.5c0,3.17,9,3.17,9,0v-41.5c6.91.17,19.42,1.51,14.84-8.85-12.79-.85-25.97-.14-38.9.29-4.87,10.66,8.34,8.41,15.06,8.56ZM960,435h-17.5c-.11,0-1.5-1.39-1.5-1.5v-19c0-2.1-8-2.09-8,0v49c0,3.2,8,2.26,8,1.5v-19.5c0-.11,1.39-1.5,1.5-1.5h17.5v17.5c0,5.88,9,5.03,9,2v-49c0-2.4-9-2.36-9,2v18.5ZM1044,462.5c1.69-8.15-1.25-21.71,0-30.5,5.2,3.47,9.61,19.62,17.08,13.58,3.81-3.08,6.82-11.28,10.92-14.58v32.5c0,2.07,8.08,5.58,9-2.98s1.19-34.75-.07-42.95c-.69-4.51-4.81-6.5-8.42-3.55-2.69,2.2-12.8,19.98-14.03,19.99-3.48.04-12.42-18-15.92-20.08-2.05-1.22-4.18-1.28-6.43-.79-2.48,1.55-.5,43.14-1.11,49.33.86,4.98,7.99,4.77,8.97.03ZM1101.5,466c6.61,1.2,20.44,0,28,0,3.17,0,3.17-9,0-9h-21c-.11,0-1.5-1.39-1.5-1.5v-41c0-1.55-7.83-4.06-8.93,3.07-1.26,8.12-.99,34.4-.07,42.95.26,2.37.77,4.99,3.5,5.48Z"/>
      <path class="cls-22" d="M1848,276c-1.67,3.28-.96,7.35-1,11-3.54-1.12-7.3-.54-10.98-.57-1.79,0-2.84-.49-3.03,2.06l14.01.51c-.06,7.32,0,14.68,0,22h-15c1.19,5.75,10.19,1.98,15,3,0,2.13,0,4.35,0,6.5v16.5h-14v2h15c-1.64,7.43-1.07,15.37-1,23-3.49.1-7.02-.14-10.51,0-1.35.05-4.16-.83-3.49,1.49.34,1.19,11.9.17,14.01.51.11,7.72.36,15.32,1,23h-15v2h15c-.85,7.67-.9,15.29-1,23h-13.99c-1.62,1.24.02,1.82,1.48,2,3.57.45,7.84-.32,11.52,0l2,22.99c-1.45,1.36-15.09-2.84-14.99,3,4.83-2.04,8.97.58,13.99,0v15.5c0,2.15,0,4.38,0,6.5-4.81,1.02-13.81-2.75-15,2.99h15c.02,6.83-.72,15.51,0,22.01h-14v616.5c0,4.85-90.03-.62-97,1.5-.25-5.3.22-10.7,0-16l77.55.05c1.02.22,3.45-.72,3.45-1.55v-106.5c0-.15,2.11.48,2.01-.5-1.63.16-1.85-2.43-2.01-2.5,3.11-.04,2.82,1.11,2.55-2.04-.65-7.54-2.75-15.13-4.63-22.39l.07-677.57c10.98-.02,22.02.04,33,0Z"/>
      <path class="cls-15" d="M1173,789c1.58-.17,3.37.03,5,0,.66-.01,1.34-.01,2,0s1.34-.04,2,0c6.81.38,11.76,2.1,18,3,4.11.59,3.54-.88,6-1,33.61-1.64,64.33-4.39,95.67,12.83,28.65,15.74,33.72,31.93,41.33,62.17.1,5.5-5.35-1.91-5.7-1.98-1.42-.29-4.87.33-5.26-.06-.25-.25.3-3.1-.93-4.58-1.07-1.28-6.59-3.83-8.41-3.38-.82.2-.62,1.81-1.37,1.98-1.44.33-3.15-.3-4.63.03-.68.15-.67,1.5-1.02,1.64-4.02,1.63-8.11,3.44-12.99,2.31-.81-.19-.28-1.83-2.12-2.06-2.45-.3-5.37.53-7.84.04-1.83-.37-1.15-5.22-8.17-3.89-5.64,1.07-4.16,4.09-5.56,7.94-7.9,5.29-13.24,9.91-23,12-4.57-.48-10.18.65-14.57.08-1.77-.23-1.25-1.69-2.19-2.01-2.02-.69-5.11-.48-7.24-.07v-6.01c.36-.37,8.6.25,10.51,0,1.46-.19,3.1-.76,1.48-2-2.72-.32-5.96.41-8.56.07-1.85-.24-1.31-1.87-2.12-2.06-2.13-.5-5.02.26-7.31-.02l3.99,7.99c-3.78-.12-9.67.81-13.24,2.07-.84.3-.63,1.54-1.53,1.89s-2.91-.24-3.22.04c-.4.37.39,3.63-.01,4-.31.28-2.3-.33-3.22.04-1.23.48-.95,3.28-6.11,1.95-.98-.25-.14-4.19-5.41-.27-.89.66-1.79,0-1.26,2.29l4.01,2c-3.68-1.42-4.06,1.91-4.51,2.02-2.24.53-1.08-1.73-2.11-2.04-3.85-1.15-3.95,2.75-5.7,3.67s-4.44.13-5.68,2.36c-3.86.26-9.15.29-13,0-34.42-2.57-58.57-34.57-46-68,.37-1,3.34-6.85,4-8,.75-1.29,3.06-4.71,4-6,.46-.63,2.82-3.81,3-4s3.26-2.42,4-3c.21-.16,2.59-1.74,3-2,1.04-.65,2.12-1.49,3-2,2.16-1.25,8.01-4.16,10-5,2.41-1.02,3.72-1.28,6-2,4.19-1.33,8.6-2.54,13-3ZM1156,886.99c-19.68-13.59-30.56-36.05-25.55-60.04,1.61-7.71,5.63-14,9.06-20.93-16.51,15.15-20.82,36.66-11.22,57.19,4.78,10.22,16.26,22.19,27.71,23.78Z"/>
      <path class="cls-11" d="M220,226c130.65,0,261.35,0,392,0h9c-.28,2.17-.16,5.73,0,8l-1,2c-1.3,1.65.93,36.36,1,42,0,.67,0,1.33,0,2,.73,61.3-.54,122.7,0,184.01,88.98,0,178.02,0,267.01,0h5l1,2c0,.67,0,1.33,0,2-.96.27-.95,1.15-1,2h-1l-460.54-.07-1.58.65-1.89,9.42c-3.02-.56-1.94,1.53-2,3.45-.32,9.49.23,19.06,0,28.55h-3c-.03-8.99.02-18.01,0-27h-206c-.18-3.26.94-6.17,1.05-9.45,2.08-65.41.42-133.9-.05-199.55,0-.67,0-1.33,0-2s0-1.33,0-2c-.11-12.19-.3-23.89-1-36-.19-3.2.41-6.97,0-10h3ZM614,232H224v42h390v-42ZM615,280l-392-1v201c.73.27,1.2-1,1.5-1h193.5v-15h2v15h3v-15h192v-184Z"/>
      <path class="cls-18" d="M426,512h3c3.06,1.27,3.52,1.36,3,5l-3.02.59.02,253.41h-6c0-42.32,0-84.68,0-127-10.31,3.56-21.46.95-26.76,12.73-7.75,17.2,7.26,42.72-13.01,59.23-9.14,7.45-47.61,25.79-44.27,1.49.9-6.53,11.76-7.86,17.26-10.73,7.75-4.05,12.02-8.58,12.79-17.71.3-3.56-.13-7.39,0-11,.1-2.66-.11-5.35,0-8,.05-1.33-.09-2.68,0-4,.9-13.11,3.54-19.74,14.47-27.03,1.96-1.31,6.54-1.67,6.54-4.46,0-.51-3.82-1.21-5.08-1.94-7.58-4.41-14.59-11.34-15.93-20.57-1.08-7.44.36-18,0-26-.38-8.48-.99-15.42-9.09-20.41-1.5-.92-7.21-3.84-8.7-4.5-3.63-1.59-11.02-.63-12.18-6.61-1.89-9.8,2.64-14.62,12.39-13.39,8.4,1.06,23.82,7.27,30.52,12.48,22.75,17.7,5.51,44.2,15.72,62.29,5.61,9.95,15.85,7.22,25.33,10.14-.11-35.98.16-72.01,0-108,2.98.88,3.18-3.78,0-3,0-1,0-2,0-3h3Z"/>
      <path class="cls-20" d="M1283,773c16.14,2.72,37.52,12.36,50,23,13.6,11.59,24.56,32.59,30,50,4.02,12.86,5.97,26.7,8.01,39.99,2.74-.33,5.21.25,7.86.69,1.79.3,3.72-.37,3.13,2.31-42.45-3.07-61.33,44.51-44.37,78.87,12.64,25.61,42.59,36.74,67.37,20.13-3.2,7.45-12.18,11.54-19.29,14.25-1.09.41-1.6,1.71-1.71,1.75-1.09.32-15.08.7-17.33.62-20.11-.71-38.85-17.34-45.85-35.94-1.9-5.05-7.2-27.04-4.82-30.68.06-.09,1.74.4,2.02-.65.5-1.9-.26-5.09-.02-7.35,1.7-15.93,14.48-34.32,29.86-40.14,1.25-1.97-3.09-16.53-3.86-19.86-.32-1.41-.66-2.64-1-4-7.61-30.24-12.67-46.43-41.33-62.17-31.34-17.22-62.06-14.47-95.67-12.83-.41-1.51,1.73-2.96,3-4,1.16-.94,2.23-.58,4-3,6.55-.64,11.2-5.92,17.01-8.49,15.51-6.85,36.53-5.29,52.99-2.51Z"/>
      <path class="cls-18" d="M320,547c.33,1.61-.44,6.31,0,7-4.53,8.01-14.37,6.99-21.49,12.01-16.65,11.75-5.72,33.44-9.99,50.01-1.5,5.83-6.75,12.1-11.83,15.17-1.53.92-7.61,2.9-7.69,3.31-.58,2.85.02,1.91,1.45,2.58,5.84,2.76,10.59,4.79,14.54,10.42,10.64,15.18-4.26,43.98,12.52,56.48,7.05,5.25,17.49,5.16,22.49,13.01-.44.69.34,5.39,0,7-.55,2.63-4.95,5.56-7.59,5.96-5.78.87-23.69-5.57-29.3-8.57-10.6-5.66-17.78-15.33-19.11-27.39-.11-.98.07-2.01,0-3-.27-3.95.13-8.03,0-12s.24-8.04,0-12c-.44-7.39-1.29-12.9-7.96-17.54-6.86-4.77-22.15-1.03-24.04-11.46-.26-1.44.38-5.4,0-6,4.09-10.54,16.32-5.36,24.49-11.01,4.92-3.4,6.93-9.18,7.51-14.99.44-4.38-.16-9.47,0-14,.13-3.65-.16-7.35,0-11,.09-1.97-.19-4.07,0-6,1.23-12.46,9.21-20.93,20.11-26.39,6.99-3.5,33.36-14.11,35.89-1.61Z"/>
      <path class="cls-15" d="M1083,709c8.53,8.62,17.82,17.62,26,26,.67.68,1.35,1.33,2,2,.21.22.36,1.94,1.43,3.03,6.02,6.13,15.71,14.03,20.58,20.47,1.71,2.27.56.95-1.01,2.5-4.07-.41-8.01.57-12,1-7.02.75-13.96,2.35-21,3.01-.34,2.08,1.37,3.48,2,4.99.68,1.63,1.58,2.98,2,4,.67,1.61,1.08,3.83,2,6,.99,2.35,2.49,3.82,3,5,.31.72.48,1.79,1,3,1.3,3.01,4.6,8.77,4.97,9.77.76,2.06.78,6.78,1.03,9.23-3.35.43-7.5,1.84-10,4-.33.03-.67-.03-1,0-1.11.1-3.11,1.16-4,2-.63-.32-1.4-.35-2-1-.12-.14-.06-1.25-.52-1.99-.42-.69-1.42-.88-1.48-1.01-1.06-2.14-.85-7.65-4-9,.59-4.15-2.69-7.5-4-11-2.02-5.39-3.44-11.06-6.52-16.02-2.85.05-20.66,16.34-24.94,19.06-1.24.79-1.95,1.26-3.54.96v-114c1.75-.44,2,.72,3.01,1.49,7.77,5.95,19.58,19.02,26.99,26.51Z"/>
      <path class="cls-18" d="M831,262c4.04-4.45,5.34-8.02,12.59-8.91,12.26-1.51,18.71,12.77,11.95,21.96l-47.6,47.41c-1.9,2.31-.71,5.02,1.05,7.07,8.48,9.86,20.4,19.36,29.59,28.91,4.21,4.37,18.85,18.37,19.46,23.03,1.64,12.59-9.3,20.06-20.57,14.58l-61.45-61.51c-11.55-13.73,7.15-24.15,15.62-32.87,9.42-9.69,19.47-21.18,28.35-29.65.31-.3,1.37.06,3-2,1.06-1.33,2.2-2.45,3-4,2.06-1.03,3.46-2.3,5-4Z"/>
      <path class="cls-18" d="M1072,310c-.24,2.13-.13,2.24,2,2,3.36,4.43,7.86,7.07,7.82,13.5-.05,7.56-4.02,9.39-8.52,13.86-8.04,7.98-17.25,17.91-25.77,26.7-5.57,5.75-12.49,10.97-16.53,17.94-2.76-.19-3.54,3.45-7,4s-12.27.87-16,1c-1.81.06-4.31.24-6,0-.67-.09-2.39-1.78-4-1-.63-2.69-1.26-3.56-1-7,.11-1.49.14-2.97,1-4.28l50.97-51.29-9.97-11.43-5-4c-.79-1.53-1.89-2.72-3-4-1.55-1.79-2.92-2.9-5-4-.79-1.53-1.89-2.72-3-4-1.55-1.79-2.92-2.9-5-4-.8-1.55-1.96-2.65-3-4-1.27-1.65-3.46-3.43-5-5-7.05-7.17-19.16-14.13-11.45-25.95,4.36-6.68,11.22-7.22,18.17-4.26l55.29,55.21Z"/>
      <path class="cls-18" d="M944,293c2.83-6.65,13.18-34.28,17.04-37.46,4.96-4.08,15.64-1.67,17.96,3.95,3.25,7.86-.24,9.8-2.5,15.51-14.27,36-30.15,71.64-44.5,108-.7,1.77-1.63,2.86-2,5h-24c0-1.32-.11-2.7,0-4,.17-2.03.91-3.27,1-4,2.87-1.61,2.92-6.08,4-9,3.61-9.76,7.99-19.38,12-29,.35-.84,1.18-1.89,2-4,1.5-3.89,4.91-10.05,5-14,3.94.65,2.35-5.15,3-7,2.54-7.23,7.29-14.61,10-21,.51-1.2.69-2.27,1-3Z"/>
      <path class="cls-22" d="M1091,494c.07.25.78.63,1,1,0,69.65,0,139.35,0,209v8c-.96-.24-3.73.32-4,0-.52-.63,1.33-4.76-2-4v-192c.51-.16,1.73.4,2.02-.66.35-6.17-.5-12.78-.02-18.89.24-3.07-.49-2.57,3-2.45Z"/>
      <path class="cls-7" d="M1255,766c6.86-.04,17.5,2.12,24.03,4.47,1.54.55,3.33.64,3.97,2.53-16.45-2.77-37.48-4.33-52.99,2.51-5.81,2.57-10.47,7.85-17.01,8.49,1.4-1.92,2.44-3.44,2-6,3.9,1.28,4.93-1.53,6-2,2.32-1.01,4.13-2.16,6-3,3.79-1.71,7.77-2.53,11-4,.39-.18.7-.68,1-1,4.98-.11,11.22-1.97,16-2Z"/>
      <path class="cls-5" d="M1111,737c10.68-3.91,6.45,3.46,8.9,6.6,1.89,2.42,6.72,1.01,7.1,1.39.21.21-.35,4.06.51,5.99,1.04,2.35,3.64,2.31,4.49,3.01.15.13-.13,4.12,1.99,1.99s-1.86-1.85-1.99-1.99c-1.5-1.65,1.8-3.35,3.56-1,.33.44.17,9.5.44,11-1.67.82-3.42-.94-4-1,1.57-1.55,2.72-.23,1.01-2.5-4.87-6.44-14.56-14.34-20.58-20.47-1.07-1.09-1.21-2.81-1.43-3.03Z"/>
      <path class="cls-5" d="M1086,708c3.34-.76,1.48,3.37,2,4,.27.32,3.04-.24,4,0,.76.19,3.82.89,3.96,1.04.92,1.01-1.6,5.97-.91,6.88.22.29,2.4.4,3.33,1.2,2.55,2.17,8.4,8.18,10.51,10.71,1.06,1.26,2.54,2.16.1,3.17-8.18-8.38-17.47-17.38-26-26l3-1Z"/>
      <path class="cls-5" d="M1182,789c1.72-7.49,5.89-2.23,8.47-2.06,4.42.28,8.63-6.62,9.53,5.06-6.24-.9-11.19-2.62-18-3Z"/>
      <path class="cls-5" d="M1120,764c.85,7.55-2.92,2.73-5.51,2.46-2.74-.28-8.74,2.92-12.49,1.54l-1,3.99c-.63-1.51-2.34-2.92-2-4.99,7.04-.66,13.98-2.25,21-3.01Z"/>
      <path class="cls-5" d="M1209,787c-.12-2.9,1.65-5.3-.01-7.99,4.49,1.02,2.54-2.44,3.01-3.01,1.4-1.68,2.56,1.86,3,2,.44,2.56-.6,4.08-2,6-1.77,2.42-2.84,2.06-4,3Z"/>
      <path class="cls-5" d="M1160,792c.56-4.3,6.03-4.71,9.56-4.98,1.89-.15,4.01-.93,3.44,1.98-4.4.46-8.81,1.67-13,3Z"/>
      <path class="cls-5" d="M1129,805c.5-.32,2.03-3.52,2.98-2.99l2.02,3.99c-.18.19-2.54,3.37-3,4l-2-5Z"/>
      <path class="cls-5" d="M1154,794c-1.99.84-7.84,3.75-10,5l1.08-3.55,8.92-1.45Z"/>
      <path class="cls-5" d="M1221,776c-3.26-2.79,2.3-4.42,3.51-5.98l2.49,2.98c-1.87.84-3.68,1.99-6,3Z"/>
      <path class="cls-5" d="M621,278l3-3.5-3,5.5c0-.67,0-1.33,0-2Z"/>
      <path class="cls-5" d="M1105,777c.95,1.4,1.82,4.13,0,5-.92-2.17-1.33-4.39-2-6,.74-.11,1.79.99,2,1Z"/>
      <path class="cls-5" d="M1141,801c-.41.26-2.79,1.84-3,2-2.24-3.71-.33-3.78,3-2Z"/>
      <path class="cls-5" d="M619,224c.53.29,2.63-.32,3,0,.69.6-.99,1.88-1,1.99h-3l1-2Z"/>
      <path class="cls-5" d="M1139.99,793.01c1.09,1.09-.9,3.08-1.99,1.99s.9-3.08,1.99-1.99Z"/>
      <path class="cls-5" d="M1178,789c-.61-2.97,2.55-3.13,2,0-.66-.01-1.34-.01-2,0Z"/>
      <path class="cls-5" d="M621,234c0,.11,1.4.94.99,1.99-.57.11-1.87-.16-1.99,0l1-2Z"/>
      <path class="cls-5" d="M1222.99,769.99c-.35.68-1.7-.59-.98-1.99.35-.68,1.7.59.98,1.99Z"/>
      <path class="cls-22" d="M1238,769v-1h1c-.3.32-.61.82-1,1Z"/>
      <path class="cls-16" d="M605,1438l-90,235c-49.32-.03-98.68.02-148,0-.06-1.72.46-3.4,1-4.99,1.54-4.62,15.5-36.46,14-38-24.68-.14-49.33.03-74,0v-2l75.86-.14c8.46-21.44,15.92-43.33,24.14-64.86,10.58-27.72,21.91-55.56,32.49-83.01,5.36-13.88,9.87-28.14,15.64-41.86,49.6-.1,99.26-.33,148.86-.14Z"/>
      <path class="cls-12" d="M605,1438c7.99.03,16.01-.03,24,0,.54,3.77-2.48,6.51-3.67,9.82-13.82,38.49-28.68,76.87-43.33,115.17-6.85,17.92-14.01,35.78-20.75,53.75-1.33,3.55-3.19,7.44-3.25,11.25-.64.06-1.32-.16-1.96.04-.24.63.11,1.46-.04,1.96-1.43,5.1-3.83,9.82-5,14.99,14.14.72,28.38.47,42.54.96,22.43.78,45.01,1.31,67.46,2.04,21.27.69,43.11.99,64.54,1.96,3,.14,16.99,1.21,17.94,2.06.38.34.41,1.39.52,1.99-2.48,2.56-.02,18.03-.99,19.01-75.99-.04-152.02.04-228.01,0l90-235Z"/>
      <path class="cls-12" d="M781,1144c6.98.03,14.01-.03,20.99,0l49.01,229.99c10.78,50.58,21.58,98.85,32,150,1.44,7.08,1.5,15.47,5,22-.18,6.31,3.26,11.33,2.01,18.01-11.99-.11-24.02.13-36.01,0v-1c2.08-.04,5.48-.98,7.5-.98,1.89,0,8.85,2.85,8.46-.46l-88.96-417.56Z"/>
      <path class="cls-16" d="M543.64,1299.37c11.9,6.6,22.13,22.16,21.97,35.96-.42,36.21-47.27,36.87-64.44,10-20.25-31.71,10.41-63.71,42.47-45.95Z"/>
      <path class="cls-12" d="M796,1563v1c-.67.02-1.33,0-2,0-28.48.28-60.91,1.72-89,0-1.43-.09-2.77-.19-4-1,31.5-.08,63.58-.23,95,0Z"/>
      <path class="cls-12" d="M700,1563v1h-60v-1c19.77-.26,40.31.06,60,0Z"/>
      <path class="cls-17" d="M854,1563v1c-.33,0-.67,0-1,0-1.6-.03-4.16.6-5-1,2-.03,4,.04,6,0Z"/>
      <path class="cls-17" d="M800,1563c-.69,1.5-2.68.97-4,1v-1c1.33,0,2.67-.01,4,0Z"/>
      <path class="cls-12" d="M221.99,1147.99c-.35.68-1.7-.59-.98-1.99.35-.68,1.7.59.98,1.99Z"/>
      <path class="cls-3" d="M1189,1580c25.46,5.07,54.73,20.69,75.75,35.7,3.99,2.85,7.61,7.76,12.25,10.3.32.67.69,1.32,1,2,.15.33-.39,1.33.19,1.83s1.99.12,2.81.17c-.5,2.39,1.75,1.77,2,2,3.01,2.8,10.72,11.67,13,15,4.67,6.83,16.77,29.95,2.43,31.94l-283.98.11c-8.68-2.45-6.91-12.57-4.32-19.42,1.04-2.74,7.24-13.58,8.87-15.63.8-1.01,11.98-11.2,14-13,1.25-1.11,3.37-2.64,5-4,37.82-31.66,101.41-56.87,151-47ZM1088,1614c15.38,14.49,24.17,26.44,31.3,47.2l4.69,16.79c-.67-28.79-17.02-60.65-43.98-72.99l6.58,5.95c1.09,1,1.22,2.87,1.41,3.04-9.34,1.84-20.43,7.03-28.88,11.62-19.33,10.5-37.09,25-45.79,44.66-.69,1.56-.31,3.1-.32,4.71l8.01-13.47c17.91-21.22,43.11-34.05,66.98-47.52Z"/>
      <path class="cls-24" d="M1546,1524l.08,26.57c-3.51,11.91-3.01,28.2-4.08,41.43-.34,4.22-.64,9.02-1.01,13.49-.56,6.71-1.52,13.29-1.95,20.07-.17,2.59-1.67,1.24-3.04,1.45-.21,1.75,2.82.95,3.99.99v1c-.62.09-.74.54-1,1-1.75,3.08-1.09,15.65-1,20-3,7.8-1.52,16.28-2.11,24.39-.86,11.83-2.87,24.26-3.89,36.11-.43,5.01.29,10.43,0,15.49h-118c-2.96-9.23-.8-19.74-1.92-28.57-.24-1.91-1.92-.95-2.16-2.87-1.54-12.15-1.32-30.65-1.92-43.57-.03-.66.03-1.34,0-2-.01-.33.01-.67,0-1-.2-5.69-.93-12.2.05-17.45.04-.92-1.4-.49-2.05-.55v-1c0-.33,0-.67,0-1,.19-19.45-3.56-41.16-6-60-1.53-11.78.88-20.46-1.98-32.69-.72-3.09.45-7.93-.02-11.31,49.22.6,98.78.6,148,0ZM1491.63,1576.38c-29.06-17.88-57.48,8.43-59.67,38.07-1.6,21.66,8.46,50.67,31.65,55.43,50.97,10.48,66.76-69.67,28.02-93.51Z"/>
      <path class="cls-21" d="M668,1621c10.06.81,18.94.73,29,1,2.66.07,5.34-.06,8,0,9.8.22,21.44.95,29,1,2.65.02,5.36-.13,8,0,9.61.47,19.27.75,29,1,2.66.07,5.34-.07,8,0,9.84.27,20.02.73,30,1,2.66.07,5.34-.07,8,0,9.54.26,19.38.76,29,1,2.66.07,5.34-.06,8,0,8.22.2,19.48.81,29,1,2.66.05,5.34-.04,8,0,10.41.14,18.44.46,29,0,2.17-.1,6.12-.37,8,0,2.26.44,4.27,2.78,4.5,5.01.53-6.39,1.17-3.11,5.95-2.96,8.53.27,12.15,0,19.55-2.05,1.49-.41,7.6.43,8,0,1.21,1.22.23,2.79,2.44,3.08,7.49,1,18.47-.33,26.56-.08,2.65.08,5.09.95,7,1-.06,3.99.09,8.01,0,12-.06,2.5.71,9.42-.94,10.56l-257.06.44c-.11-.6-.14-1.65-.52-1.99-.95-.85-14.94-1.92-17.94-2.06-21.43-.97-43.28-1.27-64.54-1.96v-18.01s-105,0-105,0c.14-.5-.21-1.34.04-1.96.64-.19,1.32.02,1.96-.04,6.02-.58,13.31.1,19.54.04,23.08-.19,46.7.25,69.92-1.09,2.27-.13,13.07.53,13.55.05.38-.39-.39-5.63-.01-6.01.25-.25,5.77-.09,7.01,0ZM934.5,1630v1c.65-.33.65-.67,0-1Z"/>
      <path class="cls-23" d="M1527,1067h17c49.98,0,100.02-.16,150,0l24,561c-8.65.04-17.35-.04-26,0-9.32.04-18.68-.06-28,0,0-2.01.36-11.53,0-12.01-.12-.16-1.44.1-2,0-.08-6.2-1.7-8.54-2.08-11.43-.46-3.53.8-8.55.06-11.88-.19-.84-2.68-.68-1.98-2.69,9.32-1.66,23.4-8.14,31.19-14.07,24.8-18.9,10.49-74.61,2.75-100.37-11.28-37.52-28.82-73.43-45.06-108.94l-24.88-48.62c7.48-1.18,15.57.58,23.52,0,1.49-.11,2.89.78,2.48-1.49-2.12-2.24-4.58-5.24-6.32-7.74-8.41-12.03-15.34-24.72-23.99-36.46-.66-.89-5.19-4.15-5.38-4.59-.57-1.29-.1-3.49-.3-3.72-.34-.39-5.67.33-7.3-.03-.37-.08-2.61-3.76-6.28-3.97-2.77-.16-3.91,2.03-6.41,1.98,2.17-6.96,8.01-5.6,13.49-3.99,2.17-1.9-2.24-2.8-3.16-4.33-8.14-13.59-18.45-25.79-28.29-38.43-16.35-21.02-31.07-42.7-48.09-62.47-2.57-2.98-16.99-15.55-17.66-17.05-.56-1.26-.07-3.45-.32-3.7-.34-.35-2.61.39-3.74-.24-.6-.34-2.21-4.11-3.21-5.09-6.07-5.9-13.7-12.13-20.63-17.13-1.59-1.15-2.59-4.7-4.33-3.48-.14.09-.24,4.2-2.06,1.91-.19-.23.29-2.41-.3-3.74-1.08-2.46-6.45-3.93-7.39-4.59-5.03-3.51-8.43-6.72-14.66-9.33-5.79-2.42-10.77-2.72-16.91-4.41-.82-.22-4.01-4.84-5.06-5.62-1.52-1.13-14.25-8.01-15.69-8.32-.68-4.82-4.93-3.3-8-5h121Z"/>
      <path class="cls-15" d="M1800,276v211c0,94.17.06,188.37-.08,282.56,4.23,5.78,3.67,15.23,5.08,22.44h-14c1.24-7.24.81-16.61,5.07-22.44-.14-94.19-.07-188.39-.07-282.56v-210c.21,0,1.96-1,4-1Z"/>
      <path class="cls-6" d="M1796,409v5h-1c-.1-.63.14-1.45,0-2-.51-1.96-2.54-3.38,1-3Z"/>
      <path class="cls-7" d="M1815,276l-.07,677.57c1.88,7.26,3.98,14.85,4.63,22.39.27,3.15.55,2-2.55,2.04-1.44-.65-11.86.89-12.01-.51,1.77-7.09.96-16.27,5.09-21.92-.14-156.19-.08-312.39-.08-468.57v-211c1.4,0,3.5,0,5,0Z"/>
      <path class="cls-22" d="M1810,276v211h-10v-211c2.99,0,6.63,0,10,0Z"/>
      <path class="cls-12" d="M1718,1628c13.98-.07,28.02,0,42,0,25.65.01,51.35-.02,76.99.01l-19.45,2.03c-41.85-.03-83.71-.1-125.54-.04v-2c8.65-.04,17.35.04,26,0Z"/>
      <path class="cls-11" d="M1091,491c.14.93-.21,2.19,0,3-3.5-.12-2.76-.62-3,2.45-.48,6.11.36,12.73.02,18.89-.28,1.05-1.5.49-2.02.66-2.08.67-4.23,1.12-6.45,1.05l-647.55-.05c.52-3.64.06-3.73-3-5,218.98,0,438.02,0,657.01,0-.63-6.27.84-13.95,0-20.01-.05-.33.03-.67,0-1,1.67,0,3.33,0,5,0Z"/>
      <path class="cls-5" d="M1044,462.5c-.98,4.74-8.11,4.95-8.97-.03.61-6.19-1.36-47.78,1.11-49.33,2.25-.49,4.38-.43,6.43.79,3.5,2.08,12.44,20.12,15.92,20.08,1.22-.02,11.34-17.79,14.03-19.99,3.6-2.95,7.73-.96,8.42,3.55,1.26,8.2.99,34.33.07,42.95s-9,5.05-9,2.98v-32.5c-4.1,3.29-7.11,11.49-10.92,14.58-7.47,6.05-11.88-10.1-17.08-13.58-1.25,8.79,1.69,22.35,0,30.5Z"/>
      <path class="cls-5" d="M960,435v-18.5c0-4.36,9-4.4,9-2v49c0,3.03-9,3.88-9-2v-17.5h-17.5c-.11,0-1.5,1.39-1.5,1.5v19.5c0,.76-8,1.7-8-1.5v-49c0-2.09,8-2.1,8,0v19c0,.11,1.39,1.5,1.5,1.5h17.5Z"/>
      <path class="cls-5" d="M998,422c-6.72-.15-19.93,2.09-15.06-8.56,12.94-.43,26.12-1.14,38.9-.29,4.58,10.36-7.93,9.02-14.84,8.85v41.5c0,3.17-9,3.17-9,0v-41.5Z"/>
      <path class="cls-5" d="M1101.5,466c-2.73-.5-3.24-3.12-3.5-5.48-.92-8.55-1.19-34.83.07-42.95,1.1-7.12,8.93-4.61,8.93-3.07v41c0,.11,1.39,1.5,1.5,1.5h21c3.17,0,3.17,9,0,9-7.56,0-21.39,1.2-28,0Z"/>
      <path class="cls-13" d="M1086,491c-63.98.06-128.02-.04-192,0-.03-.33.03-.67,0-1l192,1Z"/>
      <path class="cls-11" d="M930,388c-.16.91.11,2.04,0,3-7.98.03-16.02-.1-24,0v-3h24Z"/>
      <path class="cls-18" d="M1024,388v3c-5.32,0-10.68,0-16,0v-2c3.73-.13,12.5-.44,16-1Z"/>
      <path class="cls-24" d="M894,490c.03.33-.03.67,0,1-.32-.31-.79-.61-1-1,.27-6.63-.38-13.39,0-20,.05-.85.04-1.73,1-2,.03,6.9-.68,15.38,0,22Z"/>
      <path class="cls-18" d="M1002,389v2c-1.33,0-2.67,0-4,0-.13-.94.2-2.16,0-3,1.61-.78,3.33.91,4,1Z"/>
      <path class="cls-11" d="M1008,389v2c-2,0-4,0-6,0v-2c1.69.24,4.19.06,6,0Z"/>
      <path class="cls-24" d="M894,466l-1-2h1c0,.67,0,1.33,0,2Z"/>
      <path class="cls-9" d="M1344,870c.76,3.33,5.11,17.89,3.86,19.86-15.38,5.83-28.15,24.21-29.86,40.14-4.01-1.79-6.31,1.9-6.68,1.99-1.47.32-3.16-.3-4.64.03-.76.17-.6,1.78-1.36,1.96-2.96.71-7.31.42-8.97-2.31-.58-.96-.11-2.57-.67-3.35-3.56-5-13.15-8.86-18.97-10.35-.82-.21-.64-1.75-1.4-1.94-1.6-.39-4.44-.05-6.31-.02-6.82-7.61-31.38-8.33-25,7-2.43,1.22-1.84,3.59-3.05,4.46-.76.55-2.4.28-2.78.72-.52.6.13,2.44-.47,3.52-.4.73-3.48,2.17-3.66,3.02-.81,3.78-1.63,4.71-1.99,5.99-.42,1.5-.54,8.69-1.1,9.23-.62.6-11.85-.58-16.95,2.05.47-10.75-1.95-21.34-3.01-32-1.92-.31-2.68.79-2.99,2.5-.73,3.99-.43,17.04,0,21.49-3.6.87-1.32-3.42-2.01-3.99-.31-.26-6.35.08-5.99-4.01,6.55-1.06,7.21-12.59-1.58-13.96-5.47-.85-17.96,3.65-19.42,9.96-2.82.27-6.07,2.49-8,4,.14-5.06-.79-9.95-1-15-.03-.66.02-1.33,0-2-.15-4.17.95-9.62-1-13-.02-4.66.01-9.34,0-14,3.85.29,9.14.26,13,0,11.3-.77,23.33-6.46,33.16-12.11,1.63-.93,3.63-4.37,6.32-4.51,1.81-.1,7.34,3.62,9.69,4.74,3.35,1.58,6.91,3.46,11.32,3.89,21.17,2.07,34.34-7.42,43.07-25.98,8.55,4.24,17.08,7.2,26.86,5.89,4.37-.59,9.36-4.65,13.07-3.96.96.18,5.6,4.83,7.85,6.21,3,1.85,7.07,4.03,10.67,3.83Z"/>
      <path class="cls-13" d="M1279,864c1.4-3.85-.08-6.87,5.56-7.94,7.01-1.33,6.34,3.52,8.17,3.89,2.47.5,5.39-.34,7.84-.04,1.84.23,1.31,1.87,2.12,2.06,4.88,1.13,8.97-.68,12.99-2.31.35-.14.34-1.49,1.02-1.64,1.47-.33,3.18.3,4.63-.03.75-.17.55-1.78,1.37-1.98,1.82-.46,7.35,2.09,8.41,3.38,1.22,1.47.67,4.32.93,4.58.4.39,3.85-.23,5.26.06.35.07,5.8,7.48,5.7,1.98.34,1.36.68,2.59,1,4-3.59.2-7.67-1.98-10.67-3.83-2.25-1.39-6.89-6.04-7.85-6.21-3.71-.69-8.7,3.38-13.07,3.96-9.77,1.31-18.31-1.65-26.86-5.89-8.73,18.57-21.9,28.05-43.07,25.98-4.41-.43-7.98-2.31-11.32-3.89-2.35-1.11-7.87-4.83-9.69-4.74-2.69.14-4.69,3.57-6.32,4.51-9.83,5.65-21.86,11.34-33.16,12.11,1.25-2.23,3.91-1.43,5.68-2.36s1.84-4.82,5.7-3.67c1.03.31-.12,2.57,2.11,2.04.46-.11.83-3.43,4.51-2.02l-4.01-2c-.53-2.28.37-1.63,1.26-2.29,5.27-3.92,4.43.02,5.41.27,5.16,1.33,4.87-1.46,6.11-1.95.92-.36,2.91.25,3.22-.04.4-.37-.39-3.63.01-4,.31-.28,2.28.32,3.22-.04s.7-1.6,1.53-1.89c3.57-1.27,9.46-2.19,13.24-2.07l-3.99-7.99c2.28.28,5.18-.48,7.31.02.81.19.27,1.82,2.12,2.06,2.61.34,5.84-.4,8.56-.07,1.62,1.24-.02,1.81-1.48,2-1.91.24-10.15-.38-10.52,0v6.01c2.14-.41,5.23-.63,7.25.07.94.32.42,1.78,2.19,2.01,4.39.57,10-.56,14.57-.08-9.57,2.05-18.36.8-28-.99,3.95,5.12,15.38,6.35,21.48,5.97,9.14-.56,26.34-8.29,29.52-16.98ZM1226.99,874.01c-1.4-.72-2.67.63-1.99.98,1.4.72,2.67-.63,1.99-.98ZM1203.5,883v1c.65-.33.65-.67,0-1Z"/>
      <path class="cls-22" d="M1156,886.99c-11.45-1.6-22.93-13.56-27.71-23.78-9.6-20.52-5.29-42.04,11.22-57.19-3.43,6.92-7.45,13.22-9.06,20.93-5.01,23.99,5.87,46.45,25.55,60.04Z"/>
      <path class="cls-9" d="M1279,864c-3.17,8.7-20.38,16.42-29.52,16.98-6.11.38-17.53-.85-21.48-5.97,9.64,1.79,18.43,3.04,28,.99s15.1-6.71,23-12Z"/>
      <path class="cls-5" d="M1127,816c-.66,1.15-3.63,7-4,8-3.69-1.41-.18-10.14,4-8Z"/>
      <path class="cls-8" d="M1016,1212c15.54,2.92,33.5,19.5,47.98,27.52,36.05,19.97,72.32,18.46,112.02,23.48,18.76,2.37,36.58,6.24,55.29,11.04.82.21.58,1.64,1.43,1.91,1.65.52,6.45.98,8.28.05.05,5.53,2.69,3.5,6,4,4.86.73,13.6,4.15,17.33,5.66,5.97,2.42,22.01,9.96,27.67,10.34.02.57-.25,1.66.08,1.9.42.31,8.05,2.29,9.92,3.1,16.16,6.95,31.7,15.55,46.84,22.91,10.11,4.92,20.12,7.93,29.49,11.75,10.81,4.41,23.78,7.83,34.92,12.63,9.39,4.05,16.84,6.13,26.43,10.05,1.54.63,9.29,4.24,11.05,4.47,3.61.47,4.68-3.03,5.28,1.19.51,3.57.7,1.2,4.19,2.28,17.26,5.33,35.36,13.29,51.53,20.08,32.62,13.69,65.79,30.9,97.99,45.97.22.1,2.55,4.31,3.27.17.42-2.41-4.86-3.52-6.21-4.55-31.23-23.93-82.76-44.41-120.76-55.95-.33-3.03.47-6.66.05-9.56-.45-3.13-2.8-8.52-3.71-10.77-3.04-7.5-5.08-15.17-8.46-22.84-1.96-4.44-2.26-7.98-4.22-12.5-.49-1.14-1.43.51-1.66-4.33,50.91,1.4,102.67,2.44,154,6l24.88,48.62c16.24,35.51,33.78,71.42,45.06,108.94,7.75,25.76,22.05,81.46-2.75,100.37-7.79,5.94-21.88,12.42-31.19,14.07-2.76.49-6.64-.6-9.31.02-.8.19-.27,1.81-2.12,2.06-4.04.53-10.17-.93-13.88-.06-.81.19-.27,1.81-2.12,2.06-20.01,2.61-52.62-.33-73.08-2.06-5.04-.43-10.41.27-15.48-.02,1.07-13.23.57-29.52,4.08-41.43l-.08-26.57c3.99-.05,8.02.03,12.01,0-.7-8.84.91-18.92.05-27.6-.16-1.61-.21-1.39-1.05-2.41-.99-1.2-8.98-.83-10.96-1.04l-8.61-35.02-131.38.1-8.51,33.98c-1.49,2-9.33.52-10.53,1.97-.84,1.02-.89.79-1.05,2.41-.86,8.68.74,18.76.05,27.6,3.99.03,8.02-.05,12.01,0,.47,3.39-.7,8.22.02,11.31,2.86,12.23.45,20.91,1.98,32.69-4,1.79-6.31-1.9-6.68-1.98-24.08-5.44-46.02-9.67-69.32-16.02-2.99-.81-6.61-2.09-10-3-9.84-2.64-18.21-5.56-28.74-8.77-7.4-2.26-13.79-3.65-20.93-6.57-6.32-2.58-13.28-3.32-19.98-6.01-9.7-3.89-18.54-7.9-28.21-12.25-6.8-3.06-9.28-3.62-17.14-3.4-1.78-3.35-6.85-1.71-10.25-2.25-8.26-1.31-16.55-4.1-24.75-5.76-.53-4.18,3.05-3.51,4.05-4.65,1.13-1.29,4.66-6.57,3.46-8.33-1.12.8-2.24.91-3.48,1.74-5.29,3.5-22.05,22.3-26,27.99-7.09,10.22-15.76,33.1-29.59,35.19-5.33.81-14.42.5-18.52-3.35-.31-.29-4.8-6.58-4.98-6.97-2.43-5.36-3.77-14.39-3.01-20.19.24-1.86,1.89-1.3,2.07-2.11,5.17-24.28,30.06-67.76,44.6-91.24,3.05-4.93,11.76-15.43,13.4-19.6.48-1.21-.28-1.99-1.48-1.48-1.43.61-9.8,10.46-11.49,12.52-20.65,25.29-36.28,56.6-46.51,87.49-1.25,3.78-1.69,9.48-2.82,12.73-.23.67-9.44,9.5-10.03,9.88-5.94,3.82-13.91,5.38-21.1,4.31-10.48-1.57-17.07-14.67-17.55-24.45-.33-6.8,3.14-23.99,5.28-30.7.68-2.13,1.82-4.67,3.7-2.78.06-2.73.07-6.74,1.09-9.22,10.42-25.46,35.04-58.85,50.67-82.53,2.15-3.26,6.35-5.91,6.24-10.25-5.75.31-7.31,5.37-10.62,8.86-24.22,25.55-39.63,52.46-51.08,85.92-1.04,3.04-1.27,8.05-2.65,10.89-1.9,3.89-16.76,13.01-21.25,14.21-11.02,2.95-25.03-.27-27.9-12.88-3.79-16.67,4.77-35.51,11.39-49.84,12.99-28.12,30.64-54.06,47.12-80.16-1.74-1.37-21.56,7.92-24.87,9.62-18.86,9.7-61.66,45.88-79.74,46.26-16.46.34-18.46-16.06-12.35-28.15,1.97-3.89,3.59-8.18,5.96-12.74,8.68-16.65,40.61-44.94,56-56,.26-.18,1.93.14,2.91-.55,8.88-6.28,17.62-12.74,27.48-17.56,4.66-4.33-.68-5.39-2.94-7.88-13.01-14.3-38.6-47.25-29.17-67.24.95-2.02,1.85-3.47,3.73-4.78,6.11-4.25,15.06-3.3,22-2Z"/>
      <path class="cls-2" d="M423,774h17c0,.18,1.06,1.57,1.07,3.38.29,32.2-.38,64.44-.07,96.62-3.99.03-8.02-.06-12.01,0-2,.03-4-.01-6,0-68.31.4-136.69-.3-205,0v-100h205ZM266,798.5v47c0,2.91,4.8,4.8,7.6,2.59,3.21-2.54.16-14.9,1.84-19.16,2.1-3.02,16.72,3.54,23.13-8.88,4.19-8.13,1.29-21.03-8.53-23.59-3.22-.84-17.24-1.07-20.5-.44-1.17.22-3.25,1.49-3.53,2.47ZM319,818v-19.5c0-3.17-9-3.17-9,0v48c0,3.17,9,3.17,9,0v-19.5h19v19.5c0,3.51,9,2.45,9,0v-48c0-3.17-9-3.17-9,0v19.5h-19ZM365.5,796c-.33.51-1.5,1.23-1.5,1.5v49c0,3.05,8,3.05,8,0v-17c0-2.42,10.23-1.25,12.5-1.5,13.71-1.53,18.51-20.35,7-29-.74-.56-4.71-3-5-3h-21Z"/>
      <path class="cls-18" d="M1092,802c-.79,47.42,1.02,95.08.05,142.54-.1,4.99-2.9,6.89,5.55,7.36,2.76.16,6.62.03,9.86.14,13.52.45,27.1-.91,40.54-.05-.75,2.8-1.93,3.77-2,4l-52.55-.07c-6.69,3.91-1.61,3.44-1.37,5.49.85,7.11.19,19.53-.05,27.12-.12,3.88-3.81,11.35,2.41,11.51l61.55-.05c.16.25,2.89,2.79,4,4h-4.99s.48,4.01.48,4.01l-3.96-3.03-58.91-.04c-2.04,1.19-1.15,9.06-1.62,9.06h-211l.15,190.86,337.85-.86c-2.49,3.33-3.3,5.31-6,8,.57-3.77-1.79-.87-4.42-1.04-.94-.06-1.76-.96-2.08-.96h-174c-.27,0-.99.81-1.96.83-3.88.1-10.6-2.26-13.54,1.17-6.94-1.3-15.89-2.25-22,2,.58-3.06-3.58-2.9-5.46-3.04-35.1-2.67-74.05,2.85-109.09.09-1.93-.15-3.62-.59-5.45-1.05v-194.5c0-.11-1.39-1.5-1.5-1.5h-448l-1.5-140c2-.01,4,.03,6,0-.2.64-.93,1.45-1,2-.37,2.91.93,5.6,1.04,8.46,1.53,39.99-1.18,80.99-.09,121.09-.22,1.02.72,3.45,1.55,3.45h654c.83,0,1.77-2.42,1.55-3.45,2.92-69.03-4.05-141.48-.11-210.11.11-1.87-.22-3.75,2.06-4.45,1.31,3.5,4.59,6.85,4,11Z"/>
      <path class="cls-22" d="M429,771c.05.32-.07.69,0,1,.11.47.54.85,1,1v1h-7v-3h6Z"/>
      <path class="cls-14" d="M928,1370c1.49.03,4.61-.88,3.95,1.44-.76,2.68-3.2,4.1-3.85,5.39-10.18,20.43-7.3,41.29,20.33,37.1,18.34-2.78,54.47-33.75,71.42-44.58,6.04-3.86,12.68-7.24,19.13-10.36l-21.4,29.09c-15.65,22.68-37.9,59.18-36.63,87.46,1.19,26.57,26.49,33.12,46.65,20.03l8.38-7.58c-4.53,14.41-8.05,34.23,3.03,46.47,8.45,9.35,22.36,10.09,32.59,3.13l12.38-9.6c.61.73-.79,15.02,1.01,18.99-33.56,10.13-67.77,18.16-101.79,26.71-7.02,1.76-15.81,2.46-22.42,4.58-8.28,2.66-18.24,8.81-26.81,12.19-27.52,10.87-88.69,30.75-116.21,19.24-6.29-2.63-10.89-7.93-9.73-15.17,2.12-13.22,34.36-24.83,44.95-30.56.33,0,.67,0,1,0,11.99.13,24.02-.1,36.01,0,1.26-6.68-2.18-11.69-2.01-18.01.14-5.11,3.41-8.88,2.61-13.03s-5.27-5.76-7.61-8.97c-10.42-51.15-21.22-99.42-32-150,17.06-1.03,35.66,1.37,52.54.04,8.15-.65,15.99-4.23,24.46-4.04Z"/>
      <path class="cls-13" d="M936,1368c-2.37,4.56-4,8.85-5.96,12.74-6.11,12.09-4.1,28.49,12.35,28.15,18.08-.38,60.88-36.55,79.74-46.26,3.3-1.7,23.12-10.99,24.87-9.62-16.49,26.11-34.14,52.04-47.12,80.16-6.62,14.33-15.18,33.17-11.39,49.84,2.87,12.61,16.88,15.83,27.9,12.88,4.49-1.2,19.34-10.32,21.25-14.21,1.38-2.83,1.61-7.85,2.65-10.89,11.45-33.46,26.86-60.37,51.08-85.92,3.31-3.5,4.87-8.55,10.62-8.86.1,4.34-4.09,6.99-6.24,10.25-15.63,23.68-40.25,57.07-50.67,82.53-1.02,2.48-1.03,6.5-1.09,9.22-1.88-1.89-3.02.65-3.7,2.78-2.14,6.71-5.61,23.9-5.28,30.7.48,9.78,7.07,22.88,17.55,24.45,7.19,1.08,15.16-.49,21.1-4.31.59-.38,9.8-9.22,10.03-9.88,1.13-3.25,1.57-8.95,2.82-12.73,10.23-30.89,25.87-62.2,46.51-87.49,1.68-2.06,10.06-11.91,11.49-12.52,1.2-.51,1.95.27,1.48,1.48-1.64,4.17-10.35,14.67-13.4,19.6-14.54,23.48-39.43,66.95-44.6,91.24-.17.81-1.82.25-2.07,2.11-.76,5.8.59,14.82,3.01,20.19.18.39,4.67,6.68,4.98,6.97,4.1,3.85,13.2,4.15,18.52,3.35,13.83-2.09,22.5-24.97,29.59-35.19,3.95-5.7,20.72-24.5,26-27.99,1.24-.82,2.36-.94,3.48-1.74,1.2,1.76-2.33,7.04-3.46,8.33-1,1.14-4.58.46-4.05,4.65,8.2,1.66,16.49,4.46,24.75,5.76,3.4.54,8.47-1.1,10.25,2.25-.33,0-.67,0-1,0-1.1.02-1.89,1-2,1-.33,0-.67,0-1,0-12.29-.11-22.66-3.84-34.29-6.87-7.69,7.55-12.77,17.11-18.71,25.87-9.93,14.64-16.75,32.34-38.51,30-6.43-.69-15.83-7.12-18.49-13-1.8-3.98-.39-18.26-1.01-18.99l-12.38,9.6c-10.23,6.96-24.14,6.22-32.59-3.13-11.07-12.25-7.56-32.07-3.03-46.47l-8.38,7.58c-20.16,13.09-45.46,6.54-46.65-20.03-1.27-28.28,20.98-64.78,36.63-87.46l21.4-29.09c-6.45,3.12-13.09,6.5-19.13,10.36-16.95,10.83-53.08,41.8-71.42,44.58-27.63,4.18-30.51-16.67-20.33-37.1.64-1.29,3.09-2.71,3.85-5.39.66-2.32-2.46-1.41-3.95-1.44l8-2Z"/>
      <path class="cls-4" d="M892,470c.79,5.62-1.54,15.36,1,20,.21.39.68.69,1,1l192,1c.84,6.05-.62,13.74,0,20.01-218.98,0-438.02,0-657.01,0h-1v-32l1.89-9.42,1.58-.65,460.54.07ZM461.73,478.31c-.86-.38-9.92,1.51-11.46,2.02-1.74.57-2.12,4.12-2.61,5.35-.14.35-1.47.37-1.63,1.03-.33,1.36-.33,7.24,0,8.59.16.67,1.49.69,1.63,1.03.46,1.16.19,2.57.68,3.34,1.55,2.38,3.37,1.89,5.32,2.67.35.14.37,1.47,1.03,1.63,5.31,1.29,8.73-.87,12.96-2.31,3.27-3.56,5.97-10.39,4.03-15.4-.15-.39-5.65-5.7-6.01-5.93-.82-.53-2.2-.08-2.87-.4-.99-.47-.91-1.53-1.09-1.61ZM511.75,478.24c-1.41-.73-11.63,1.67-13.3,4.18-7.34,11.04.91,25.24,14.53,21.02.75-.23,6.89-5.7,6.98-6.16.4-1.97.4-10.58,0-12.55-.06-.3-4.01-4.24-4.27-4.41-.82-.52-2.16-.08-2.88-.39-1-.44-.87-1.59-1.06-1.69ZM559.74,478.3c-21.59-.83-19,31.38,3.02,24.91,2.15-.63,6.48-4.75,6.99-6.96,1.06-4.62.29-11.75-3.72-14.77-2.31-1.74-5.55-.48-6.28-3.19Z"/>
      <path class="cls-19" d="M614,232v42H224v-42h390ZM246,243c-3.92,2.13-6.73,7.74-5.74,12.22.38,1.7,6.9,10.12,8,10.48,1.78.59,6.37.62,8.29.36,2.03-.27,2.9-3.39,3.74-3.77,1.25-.55,3.43-.07,3.68-.33.35-.36-.28-2.3.07-3.19.41-1.04,1.8-.42,2.04-2.2,1.33-9.8-2.18-9.3-8.08-14.57-.17-.16.59-1.78-.59-2.05-1.55-.37-6.97-.1-8.96.05-3.07.24-2.57-.48-2.45,3ZM307,242c-.23-.14-.37-1.45-1.63-1.81-1.49-.42-5.18-.52-6.67-.15-.64.16-.51,1.37-1.51,1.89-.64.33-2.17-.23-2.95.32-.56.4-.12,1.64-.23,1.75s-1.35-.33-1.75.23c-.56.78,0,2.35-.32,2.95-.62,1.12-1.78.58-2,2.24-.92,6.84.39,7.88,4.08,12.57.68.86,1.14,3.77,3.46,4.06,1.87.23,10.44.33,11.87-.05,1.13-.3.55-1.91.66-2.02s1.12.22,1.65-.38c.25-.29,4.21-5.98,4.3-6.35.39-1.72.28-4.88-.15-6.61-.29-1.14-1.74-1.52-1.79-1.66-.2-.52.35-1.67-.34-2.66-1.24-1.76-4.65-3.14-6.66-4.34ZM359.6,242.44c-15.73-10.06-28.35,12.97-15.29,21.24.75.48,2.19.19,3.36.66.34.14.36,1.46,1.03,1.63,1.3.32,4.45.28,5.86.1.44-.06,7.19-4.45,7.46-4.81,3.59-4.61,2.74-15.51-2.43-18.82Z"/>
      <path class="cls-22" d="M428,480v32h-2c.23-9.49-.32-19.05,0-28.55.06-1.93-1.02-4.01,2-3.45Z"/>
      <path class="cls-1" d="M893,490c-2.54-4.64-.21-14.38-1-20h1c-.38,6.61.27,13.37,0,20Z"/>
      <path class="cls-5" d="M612,226c-.61-2.97,2.55-3.13,2,0h-2Z"/>
      <path class="cls-20" d="M1170,921c.21,5.05,1.14,9.94,1,15-4.7,3.68-5.22,6.43-7.34,11.67-1.63,4.03-.83,3.76-1.68,7.65-.17.79-1.82.26-2.06,2.11-.29,2.19-.34,12.04.1,13.88.18.76,1.79.63,1.96,1.37.86,3.84.03,3.59,1.68,7.65,1.08,2.66,3.35,9.28,4.66,11.36,2.2,3.49,11.83,10.26,15.68,11.31,1.24,6.11,3.77,11.9,5.76,17.78.39,1.16.02,2.6.24,3.22-8.24-2.21-14.66-7.95-21-13-1.65-4.41-5.42-7.62-7.8-11.7-14.21-24.34-12.38-54.63,5.8-76.3.18-.15-.79-3.04,3-2Z"/>
      <path class="cls-12" d="M1169,1011c-2.61-2.08-6.37-4.11-9-7-1.11-1.21-3.84-3.75-4-4-2.09-3.32-6.93-16.5-7.89-20.61-.86-3.65-2.83-20.93-2.11-23.39.07-.23,1.25-1.2,2-4,4.13-15.51,7.26-19.02,19-29-18.19,21.67-20.01,51.96-5.8,76.3,2.38,4.07,6.16,7.29,7.8,11.7Z"/>
      <path class="cls-5" d="M1115,809c.11,1.09.74,1.97,1,2.99-2.96.22-5.8,1.25-8.73,1.69-1.1.16-2.05-.7-2.27-.68,2.5-2.16,6.65-3.57,10-4Z"/>
      <path class="cls-20" d="M1170,919c-1.85-3.33-.98-8.89-1-13,1.95,3.38.85,8.83,1,13Z"/>
      <path class="cls-5" d="M1104,813c.47,4.03-.69,3.7-4,2,.89-.84,2.89-1.9,4-2Z"/>
      <path class="cls-5" d="M1108,787c.01-1.34-.44-2.31.98-1.99.84,2.84,4.34,2.71.02,4.99-.52-1.21-.69-2.28-1-3Z"/>
      <path class="cls-5" d="M1098,814c-2.43.51-2.21-.88-2-3,.06.13,1.06.31,1.48,1.01.45.74.39,1.86.52,1.99Z"/>
      <path class="cls-5" d="M1118.99,801.01c1.09,1.09-.9,3.08-1.99,1.99s.9-3.08,1.99-1.99Z"/>
      <path class="cls-5" d="M1107.5,781c.65.33.65.67,0,1v-1Z"/>
      <path class="cls-22" d="M423,515c3.18-.78,2.98,3.88,0,3,0-1,0-2,0-3Z"/>
      <path class="cls-9" d="M1316,938c-2.38,3.64,2.92,25.63,4.82,30.68,7,18.6,25.74,35.23,45.85,35.94,2.25.08,16.24-.3,17.33-.62,6.44,21.04,13.09,42.11,20,63,.81,2.44,2.16,6.8,4,8-.23,5.84,1.69,4.63,1.96,5.71.43,1.7,1.82,7.42,1.99,8.85,1.51,12.73-4.31,20.75-9.15,31.76-2.12,4.83-5.29,9.99-6.79,14.69-6.03-.62-3.07.73-4.04,3.22-.63,1.62-1,1.76-1.96,4.78-1.87,5.86-2.95,3.18-3.83,4.12-.53.56.15,2.48-.46,3.6-.25.45-2.86,2.08-3.62,3.1-9.97,13.25-13.95,16.9-27.75,25.55-4.52,2.83.48,1.86-7.64,3.65-.83.18-.25,1.82-2.12,2.06-2.68.35-13.4.38-15.84-.12-.72-.15-9.58-9.26-10.4-10.27-.59-.72-.05-2.61-.64-3.37-.75-.97-5.51-4.41-5.65-5.04-1.93-8.85-5.65-17.04-8.07-26.57-.86-3.39-5.16-12.23-5.94-15.39-.52-2.06,1.54-5.93-2.02-5.31.42-.45.62-1.43,1-2,43.21-3.69,68.18-43,72.99-83l-9.18,14.3c-15.18,21.28-42.62,41.29-68.81,45.69-7.3,1.23-15.59,1.42-23,1-43.25-2.43-65.8-34.39-79-72-.22-.62.16-2.06-.24-3.22-2-5.88-4.53-11.67-5.76-17.78,3.23.88,7.27,1.53,10.57,1.08,1.87-.26,1.29-1.88,2.11-2.06,1.44-.32,3.13.27,4.59-.05.68-.15,8.08-8.95,9.72-9.97l3.01,18c3.22,1.67,12.61-6.43,13.99-5-.97,6.35,1.92,11.79,2.02,17.98,3.99,1.04,8.84-1.51,12.4-.98s6.62,3.24,12.59,3.99c.25.03.98,1.03,2.42,1.05,7.59.09,12.04-2.34,11.63-10.51-.15-2.93-1.62-3.97-2.05-5.54-.15-.56.13-1.4,0-2-.11-.5,1.34.26,0-1-1.25-1.17-4.46-5.18-5.41-4.95-1.32.32-8.5,7.79-11.54,9.5-4.62,2.61-10.68,4.83-16.06,4.45l-2.01-22-12.98,6-4.01-35c0-.1-.73-.51-.61-1.96.07-.84,1.48-5.7,1.79-5.9.71-.45,2.35.15,3.03-.2,1.09-.57.49-1.76,2.22-2.02,1.32-.2,4.64-.2,5.88.1.71.17.52,1.58,1.46,1.94s2.91-.24,3.22.04c.19.18-.13,3.8.24,5.25,2.24,8.73,9.39,17.91,17.44,21.08,4.63,1.82,6.31,2.5,11.65,3.67.89.19-.04,2.12,3.12,2.1,4.68-.03,19.17-3.82,23.25-6.43,4.76-3.05,11.94-13.76,14.22-18.52,1.55-3.24,2.1-2.92,2.1-3.16v-20c-1.78.78-2.92-1.24-1.99-1.99.38-.31,3.85.29,5.29-.04.69-.16.68-1.6,1.49-1.88,2.28-.77,4.94-1.01,7.22-.09ZM1276.99,1027.01c-4.67,1.76-3.75,5.45-9.65,5.61-1.13.03-8.49-2.06-7.34.87,2.5,6.32,21.18,3.82,16.98-6.48Z"/>
      <path class="cls-2" d="M1382,889c43.27,3.13,57.95,65.66,27,95l-2,2c-.78.64-1.71,1.8-2,2-24.78,16.61-54.73,5.48-67.37-20.13-16.96-34.36,1.92-81.94,44.37-78.87Z"/>
      <path class="cls-1" d="M1269,916c1.87-.03,4.71-.37,6.31.02.76.19.58,1.73,1.4,1.94,5.82,1.49,15.41,5.36,18.97,10.35.56.78.08,2.39.67,3.35,1.66,2.73,6.01,3.02,8.97,2.31.76-.18.6-1.8,1.36-1.96,1.47-.32,3.16.3,4.64-.03.37-.08,2.67-3.78,6.68-1.99-.24,2.26.51,5.45.02,7.35-.28,1.05-1.96.56-2.02.65-2.28-.92-4.94-.68-7.22.09-.81.27-.79,1.72-1.49,1.88-1.44.33-4.91-.27-5.29.04-.93.75.22,2.78,1.99,1.99v20c0,.23-.55-.08-2.1,3.16-2.28,4.76-9.46,15.47-14.22,18.52-4.08,2.61-18.57,6.4-23.25,6.43-3.17.02-2.24-1.9-3.12-2.1-5.34-1.17-7.02-1.85-11.65-3.67-8.04-3.17-15.2-12.35-17.44-21.08-.37-1.45-.05-5.08-.24-5.25-.31-.28-2.3.32-3.22-.04s-.75-1.77-1.46-1.94c-1.24-.3-4.56-.3-5.88-.1-1.73.26-1.13,1.45-2.22,2.02-.68.35-2.32-.25-3.03.2-.31.2-1.72,5.05-1.79,5.9-.12,1.45.62,1.85.61,1.96-.47,9.38-.81,16.94-4,26-1.64,1.02-9.04,9.82-9.72,9.97-1.47.32-3.15-.27-4.59.05-.82.18-.25,1.8-2.11,2.06-3.31.45-7.34-.19-10.57-1.08-3.85-1.05-13.48-7.83-15.68-11.31-1.31-2.08-3.57-8.7-4.66-11.36-1.65-4.05-.82-3.8-1.68-7.65-.17-.74-1.78-.61-1.96-1.37-.44-1.84-.39-11.69-.1-13.88.24-1.86,1.89-1.32,2.06-2.11.85-3.89.05-3.62,1.68-7.65,2.12-5.24,2.64-8,7.34-11.67,1.93-1.51,5.18-3.73,8-4s7.78-.34,10.44.07c3.31.5,7.92,4.36,10.56,3.93-.36,4.08,5.68,3.75,5.99,4.01.69.58-1.6,4.87,2.01,3.99.4,4.22,2.11,6.01,3.01,10,2.09.74,2.39-1.69,2.99-2,5.1-2.63,16.33-1.45,16.95-2.05.56-.54.68-7.73,1.1-9.23.36-1.28,1.18-2.21,1.99-5.99.18-.85,3.26-2.29,3.66-3.02.6-1.09-.05-2.93.47-3.52.38-.44,2.02-.17,2.78-.72,1.21-.87.62-3.25,3.05-4.46,8.08-4.05,15.87-6.87,25-7ZM1252,926c-1.11.59-5.66,1.92-5.85,2.17-.63.8.31,3.07-.28,3.74-.31.35-1.98-.16-2.6.29-1.31.94-6.91,13.05-7.21,15.36s-.51,9.79-.03,11.74c.16.67,1.49.68,1.63,1.03,2.35,5.67,5.48,14.18,11.19,17.54,4.45,2.62,8.03,3.19,12.46,4.15.82.18.3,1.93,2.14,2.09,3.72.33,5.28-1.59,8.09-2.05,2.52-.42,5.32.37,7.72-.09.8-.16,2.2-3.08,3.05-3.63,3.19-2.1,6.57-2.89,9.64-7.08,3.13-4.28,3.08-6.09,4.06-10.56.18-.82,1.82-.25,2.07-2.11.34-2.59.34-10.54,0-13.14-.23-1.78-1.67-1.21-2.01-2.19-.58-1.68-.2-3.02-1.38-5.47-.76-1.59-10.99-11.49-12.56-12.37-1.87-1.05-7.21-2.92-9.14-3.4-9.57-2.38-13.12-.21-21,4ZM1176,940c-3.3,2.02-1.93,1.25-4,4-.07.1-1.38-.34-1.77.22-.54.76.03,2.36-.32,2.95-.59,1.01-3.8,5.18-3.89,5.53-.44,1.77-.44,20.81,0,22.61.18.75,1.79.61,1.96,1.37.32,1.43-.27,3.12.05,4.59.17.82,3.08,2.19,3.64,3.04s.07,2.6.65,3.37c2.51,3.34,5.91,4.7,8.68,6.31,1.72,1,2.35,3.12,5.73,3.76,2.07.39,6.68.67,8.57.21.67-.17.69-1.49,1.03-1.63,1.17-.47,2.61-.18,3.36-.66.24-.15,3.83-3.76,3.99-3.99.26-.37,3.45-6.78,3.83-7.71.62-1.5.21-2.95.49-3.98.12-.44,1.62-1.34,1.95-3.52.9-5.78-.49-8.32-1.73-13.22-1.03-4.07-2.5-11.74-4.54-14.95-.3-.48-7.54-7.68-8.01-7.98-1.03-.66-2.31-.14-2.67-.33-.32-.16-.88-1.74-2.22-2.23-3.98-1.47-8.6-1.61-12.56,0-1.35.55-1.76,1.95-2.22,2.23Z"/>
      <path class="cls-7" d="M1363,846c-5.44-17.41-16.4-38.41-30-50,27.07-.71,34.34,28.18,30,50Z"/>
      <path class="cls-17" d="M255,1628v2c-30.67-.09-61.48.9-92.01-1.5,30.62-.93,61.36-.49,92.01-.5Z"/>
      <path class="cls-12" d="M308,1628v2c-17.65-.03-35.35.05-53,0v-2c17.65,0,35.35.03,53,0Z"/>
      <path class="cls-13" d="M1662,1629v1h-123c.26-.46.38-.91,1-1,40.65-.21,81.35.28,122,0Z"/>
      <path class="cls-13" d="M1692,1628v2c-9.32.01-18.68,0-28,0v-2c9.32-.06,18.68.04,28,0Z"/>
      <path class="cls-12" d="M1664,1630h-2v-1c.49,0,1.51-1,2-1v2Z"/>
      <path class="cls-19" d="M1199,1510c7.86-.22,10.34.34,17.14,3.4,9.67,4.35,18.51,8.36,28.21,12.25,6.7,2.69,13.66,3.43,19.98,6.01,7.14,2.92,13.54,4.31,20.93,6.57,10.53,3.21,18.9,6.13,28.74,8.77-3.59,5.38-4.96,8.09-3.99,15,3.88,1.07,1.16-5.26,1.99-6,.39-.34,3.13.53,3.87-.13.44-.39.06-2.7,1.06-3.42,2.18-1.59,7.68,1.55,7.08-2.45,23.3,6.35,45.24,10.58,69.32,16.02.37.08,2.68,3.77,6.68,1.98,2.44,18.84,6.19,40.55,6,60l-124.56.08c-1.48-2.05-3.85-1.76-4.44-2.08-4.64-2.54-8.26-7.45-12.25-10.3-21.01-15-50.29-30.63-75.75-35.7-.51-5.57.39-12.66,1.1-18.4,1.71-13.86,5.73-29.9,5.9-43.6,3.66.88,1.46-5.01,2-8,.33,0,.67,0,1,0ZM1264,1580c-1.87-.24-4.06.16-6,0-3.13-2.79-7.27-2.22-11.32-1.82l-4.67,5.82c5.17,1.69,5.91-3.07,10.24-1.75,6.75,2.07,3.13,5.36,12.75,1.76.66-.25,2.67.34,2.97-.02,2.03-2.42-2.48-9.96-3.96-7.98-.21.28.04,2.97,0,3.99ZM1327.66,1615.38c-6.07-3.43-16.84,3.32-13.66,6.62,5.3,1.51,5.9-2.83,10.55-2.07.29.05,4.14,1.97,5.13,2.41.4.18.29,2.65,3.65,1.65.37-.11,1.56-2.99,4.36-2.3l4.31-5.67c-6.22-1.24-6.21,3.85-12.78,1.31-1.09-.42-1.24-1.76-1.56-1.94Z"/>
      <path class="cls-14" d="M794,1564c-.64,1.62-1.89,2.35-3.3,3.2-21.14,12.77-64.51,41.11-88.94,30.54-18.58-8.04-5.05-23.36,3.23-33.74,28.09,1.72,60.52.28,89,0Z"/>
      <path class="cls-14" d="M700,1564c-3.64,2.95-8.56,5.71-12.79,7.71-14.81,7-48.34,20.24-47.21-7.71h60Z"/>
      <path class="cls-9" d="M1195,1511l-53,19c5.94-8.76,11.01-18.33,18.71-25.87,11.64,3.03,22.01,6.77,34.29,6.87Z"/>
      <path class="cls-12" d="M779,1624c.13-1.71-.51-4.7.44-6.06,1.53-2.2,25.1-.28,29.57-.94v8.01c-9.99-.27-20.17-.73-30.01-1Z"/>
      <path class="cls-2" d="M668,1621v-7.01s29.01,0,29.01,0v8.01c-10.06-.27-18.94-.19-29.01-1Z"/>
      <path class="cls-12" d="M742,1623v-7.01s29.01,0,29.01,0v8.01c-9.74-.25-19.4-.53-29.01-1Z"/>
      <path class="cls-2" d="M705,1622v-7.01s29.01,0,29.01,0v8.01c-7.57-.05-19.2-.78-29.01-1Z"/>
      <path class="cls-2" d="M958,1627c-7.4,2.04-11.02,2.32-19.55,2.05-4.78-.15-5.42-3.43-5.95,2.96-.23-2.23-2.24-4.57-4.5-5.01-.07-1.65-.45-4.16,1.64-4.86,1.36-.46,25.37-.45,26.72,0,2.09.7,1.71,3.22,1.64,4.86Z"/>
      <path class="cls-2" d="M854,1626v-6.01s29.01,0,29.01,0v7.01c-9.53-.19-20.78-.8-29.01-1Z"/>
      <path class="cls-12" d="M817,1625v-6.01s29.01,0,29.01,0v7.01c-9.63-.24-19.46-.74-29.01-1Z"/>
      <path class="cls-12" d="M891,1627v-6.01c8.71.98,20.06-1.29,28.42-.01,1.27.19.28,4.68.58,6.02-10.56.46-18.59.14-29,0Z"/>
      <path class="cls-2" d="M966,1627c.28-.3-.68-2.73.54-3.07,6.33-1.74,21.12,1.43,28.46.06.05.99-.05,2,0,3s-.03,2,0,3c-8.09-.25-19.07,1.08-26.56.08-2.2-.29-1.22-1.86-2.44-3.08Z"/>
      <path class="cls-15" d="M1038,1627c-1.63,1.36-3.75,2.89-5,4-10.31-.19-20.69.25-31,0-1.91-.05-4.35-.92-7-1-.03-1,.05-2,0-3h43Z"/>
      <path class="cls-9" d="M1198,1510c-.54,2.99,1.66,8.88-2,8,.03-2.33-.02-4.67,0-7,.11,0,.9-.98,2-1Z"/>
      <path class="cls-18" d="M883,1524c2.34,3.21,6.81,4.83,7.61,8.97s-2.47,7.92-2.61,13.03c-3.5-6.53-3.56-14.92-5-22Z"/>
      <path class="cls-15" d="M1088,1614c-23.86,13.47-49.06,26.3-66.98,47.52l-8.01,13.47c0-1.61-.37-3.15.32-4.71,8.71-19.66,26.46-34.16,45.79-44.66,8.45-4.59,19.53-9.79,28.88-11.62Z"/>
      <path class="cls-16" d="M1088,1614c-.19-.18-.32-2.05-1.41-3.04l-6.58-5.95c26.97,12.34,43.32,44.2,43.98,72.99l-4.69-16.79c-7.13-20.77-15.92-32.71-31.3-47.2Z"/>
      <path class="cls-10" d="M1277,1626c.58.32,2.96.03,4.44,2.08l124.56-.08c0,.33,0,.67,0,1l-128-1c-.31-.68-.68-1.33-1-2Z"/>
      <path class="cls-13" d="M1406,1629v1c-21.95-2.2-53.19-.35-76,0-.67.01-1.33-.01-2,0-15.42-.72-31.69.97-47,0-.82-.05-2.23.33-2.81-.17s-.04-1.5-.19-1.83l128,1Z"/>
      <path class="cls-17" d="M1328,1630c-12.75.21-26.36.82-39.51.98-1.69.02-4.45-.64-5.49,1.02-.25-.23-2.5.39-2-2,15.31.97,31.58-.72,47,0Z"/>
      <path class="cls-2" d="M1387,1494l9.54,1.79c.73-.22.37-1.79.46-1.79h152c.32,0-2.3,1.33,4.63,1.05,2.5-.1,3.77,2.55,3.37-1.05.84,1.02.89.8,1.05,2.41.86,8.68-.74,18.76-.05,27.6-3.99.03-8.02-.05-12.01,0-49.22.6-98.78.6-148,0-3.99-.05-8.02.03-12.01,0,.7-8.84-.91-18.92-.05-27.6.16-1.61.22-1.39,1.05-2.41Z"/>
      <path class="cls-19" d="M1658,1590c-.7,2.01,1.8,1.85,1.98,2.69.73,3.33-.53,8.35-.06,11.88.38,2.9,2,5.24,2.08,11.43.05,3.99-.04,8.02,0,12.01-40.59-.99-81.44,1.3-122.01,0-1.17-.04-4.2.76-3.99-.99,1.36-.21,2.87,1.14,3.04-1.45.43-6.77,1.39-13.36,1.95-20.07.37-4.47.67-9.26,1.01-13.49,5.07.28,10.45-.41,15.48.02,20.46,1.73,53.08,4.68,73.08,2.06,1.85-.24,1.31-1.87,2.12-2.06,3.71-.87,9.84.58,13.88.06,1.85-.24,1.31-1.87,2.12-2.06,2.67-.62,6.55.47,9.31-.02ZM1599.74,1614.31c-3.05-1.76-10.77,3.77-10.74,7.68,3.76,1.67,5.27-1.86,5.69-1.96,5.31-1.34,10.84,4.29,18.66,2.01.36-.1,4.33-6.33,1.13-6.07s-5.16,3.19-9.78,2c-.67-.17-.68-1.48-1.02-1.63-1.13-.48-2.26-.18-3.36-.67-.36-.16-.34-1.23-.58-1.36Z"/>
      <path class="cls-1" d="M1662,1616c.56.09,1.87-.17,2,0,.36.48,0,10,0,12.01-.49,0-1.51,1-2,1-40.65.28-81.35-.21-122,0v-1c40.57,1.31,81.41-.98,122.01,0-.04-3.99.05-8.02,0-12.01Z"/>
      <path class="cls-17" d="M1406,1630c.65.07,2.1-.37,2.05.55-.99,5.25-.25,11.75-.05,17.45l-2-4c-.17-3,1.16-11.95-1.64-12.86l-74.36-1.14c22.81-.35,54.05-2.2,76,0Z"/>
      <path class="cls-18" d="M1408,1648c.01.33-.01.67,0,1-2.49-.78-1.89-2.98-2-5l2,4Z"/>
      <path class="cls-2" d="M934.5,1630c.65.33.65.67,0,1v-1Z"/>
      <path class="cls-20" d="M1406,1067c3.07,1.7,7.32.18,8,5-.8-.18-5.78-.2-6.01,0-.14.12.04,2.23,0,3-1.84-1.2-3.19-5.56-4-8h2Z"/>
      <path class="cls-20" d="M1407,986l2-2c-.67.64-1,1.19-2,2Z"/>
      <path class="cls-19" d="M1414,1072c1.44.32,14.16,7.19,15.69,8.32,1.05.78,4.24,5.4,5.06,5.62,6.14,1.69,11.12,1.99,16.91,4.41,6.23,2.61,9.63,5.81,14.66,9.33.94.65,6.3,2.13,7.39,4.59.59,1.33.11,3.51.3,3.74,1.82,2.29,1.93-1.81,2.06-1.91,1.74-1.22,2.74,2.33,4.33,3.48,6.93,4.99,14.55,11.22,20.63,17.13,1.01.98,2.61,4.75,3.21,5.09,1.13.63,3.4-.11,3.74.24.25.25-.24,2.44.32,3.7.67,1.5,15.09,14.07,17.66,17.05,17.02,19.77,31.74,41.45,48.09,62.47,9.83,12.64,20.14,24.84,28.29,38.43.92,1.53,5.33,2.44,3.16,4.33-5.47-1.62-11.32-2.97-13.49,3.99,2.51.04,3.64-2.14,6.41-1.98,3.67.21,5.91,3.89,6.28,3.97,1.63.35,6.96-.36,7.3.03.2.22-.27,2.43.3,3.72.19.43,4.73,3.7,5.38,4.59,8.65,11.74,15.59,24.43,23.99,36.46,1.74,2.5,4.2,5.5,6.32,7.74.42,2.26-.99,1.38-2.48,1.49-7.94.58-16.03-1.18-23.52,0-51.33-3.56-103.09-4.6-154-6-.17-3.55-1.63-1.42-5.29-2.25-5.01-1.14-3.68-9.12-4.76-13.03-7.75-28.26-19.1-58.11-29.86-86.36-.55-1.45.95-2.9-2.09-2.36-.41,9.7,7.5,22.38,8.01,31.5.11,2.06.55,2.9-2,2.5l-4.52-8.99c-.39,9.42,7.41,18.27,12.39,25.81l16.66,51.14c1.81,3.25,8.16,1.96,11.45,2.05.23,4.84,1.17,3.19,1.66,4.33,1.95,4.52,2.26,8.06,4.22,12.5,3.38,7.67,5.42,15.34,8.46,22.84.91,2.26,3.26,7.64,3.71,10.77.42,2.89-.38,6.53-.05,9.56-9.71-2.95-19.94-7.07-30-8-.6-4.22-1.67-.72-5.28-1.19-1.76-.23-9.51-3.84-11.05-4.47-9.59-3.92-17.03-6-26.43-10.05-11.14-4.8-24.11-8.22-34.92-12.63-9.37-3.83-19.37-6.84-29.49-11.75-15.14-7.36-30.68-15.96-46.84-22.91-.96-5.01,2.87-2.16,5.75-3.3.26-.1,3.85-3.69,3.95-3.95,1.03-2.66-.09-6.81.3-9.74l-3.67,4.32c.91,7.35-7.91,3.26-8.32,3.67-.18.18.22,2.76-.93,3.57s-5.37.55-7.08.44c-5.66-.38-21.7-7.92-27.67-10.34-3.73-1.51-12.47-4.93-17.33-5.66l13.96-70.56c.85-2.2-2.83-1.58-2.95-1.45-.36.36-1.55,8.13-2.01,10-2.35-.53-3.45,3.61-4.74,3.95-1.59.42-3.46-.33-5.29.53-2.91,1.37-3.58,7.13-5.98,8.02l2.01.49,2,5c-.07-5.93,3.59-11.6,10.01-9.99-1.11,4.06-3.12,14.18-4.48,17.02-.22.46-1.3,1.27-1.5.98l.98-9c-1.52.38-2.48,2.34-2.77,3.72-1.59,7.58-1.21,17.94-2.27,25.73-.42,3.09-2.98,7.85-2.95,11.55-1.83.93-6.63.46-8.28-.05-.85-.27-.61-1.7-1.43-1.91-18.71-4.8-36.53-8.67-55.29-11.04-.15-2.25,2.31-5.09,3.58-6.91,2.26-3.23,16.06-20.14,16.42-22.09,4.08-.83,4.01-4.93,6-8,2.32-3.59,7.28-11.29,10-14,2.7-2.69,3.51-4.67,6-8,8.17-10.93,16.72-20.09,24.04-31.25l22.2-24.45c3.95-1.67,3.68,1.5,4.44,1.67,1.19.28,6.53.3,7.13-.22.46-.4.08-1.67.19-1.75.27-.2,6.48-.6,3.99-4-1.01-1.37-3.72,3.87-3.99,4-3.39,1.59-4.34-3.38-8.01-2l4.01-6c3.02-.99,5.54-4.75,8-7,4.91-4.5,9.96-7.74,14.38-12.61.42-.46,1.49-.25,1.62-.39,3.56-.62,1.5,3.25,2.02,5.31.79,3.16,5.09,12,5.94,15.39,2.42,9.54,6.14,17.72,8.07,26.57.14.62,4.89,4.06,5.65,5.04.59.76.06,2.65.64,3.37.83,1.02,9.69,10.13,10.4,10.27,2.45.5,13.16.47,15.84.12,1.86-.24,1.29-1.88,2.12-2.06,8.13-1.79,3.13-.82,7.64-3.65,13.8-8.65,17.78-12.3,27.75-25.55.77-1.02,3.38-2.65,3.62-3.1.62-1.12-.07-3.04.46-3.6.89-.94,1.97,1.74,3.83-4.12,1.1.16,5.56-3.95,5.7-4.29.61-1.54.05-2.93.3-3.71,1.51-4.69,4.67-9.86,6.79-14.69,4.84-11.01,10.66-19.03,9.15-31.76-.17-1.42-1.55-7.15-1.99-8.85-.28-1.08-2.2.14-1.96-5.71.03-.77-.15-2.88,0-3,.23-.19,5.21-.17,6.01,0ZM1464,1156c6.36,4.41,2.74,2.17,4.04,9.28.41,2.22,6.34,3.8,8.47,3.81,3.2,0,8.81-2.42,3.97-3.07-1.69-.23-6.41-.94-7.56-2.62-1.26-1.86-.43-5.36-1.42-7.41-.86-1.79-2.84-1.47-3.51-1.98-.11-.08.47-1.73-.65-2.02-1.85-.49-5.39-.03-7.38.49l4.03,3.53ZM1405.99,1182.01l-5.98,7.51c-4.58-.9-5.92,2.29-7.27,2.81-1.1.42-2.67-.44-2.73-.32-.57,1.02.48,5.51,0,7.35-.25.97-1.84.28-2.03,1.15-.28,1.31,3.83,4.95,4.02,2.99-1.93-8.46,6-7.33,11.16-9.62,4.45-1.98,2.5-7.88,2.83-11.87ZM1539.99,1204c-3.26-.71-1.49,2.18-2.26,4.25-2.66,7.13-9.51,3.92-11.82,6.41-1.78,1.92-3.3,11.13-.41,12.35,1.14-1.68,3.42-8.28,4.75-8.68,1.94-.58,3.5.02,5.05-.33.69-.16.49-1.44,1.47-1.94.74-.37,2.62.31,3.13-.12,1.26-1.07.6-9.83.09-11.92ZM1320,1230c-.12-.11.48-1.72-.66-2.02-2.61-.68-7.6.43-10.61.06-.49,1.51-5.68,4.31-4.65,5.9s9.38,4.72,7.93-.94c.53-.07,1.34-1.39,3.29-1.04.69.12,2.57,3.82,3.43,3.99,1.94.39,6.12.23,8.28.04,4.6-.39,3.02-2.71,6.98-4.02.78-1.33-2.5-3.97-3.43-4.04-3.89-.3-2.24.88-2.55,4.06-2.98.41-5.76,0-8-2ZM1474,1242c-2.65-2.36-7.8-2.66-11.27-1.96-.42.08-5.97,5.59-4.72,6.96,1.42,1.55,4.11-2.94,5.46-3.08,7.14-.73,7.74,3.84,10.01,4.15,5.06.7,3.89-1.36,5.24-2.04.69-.35,1.77.14,2.28-.02.76-.24.77-.27,1-1,.07-.24,0-.67,0-1,2.68.7,1.87-2.06,3-3.99-3.98.28-4.51-1.48-5,1.99-1.95-.2-4.03.14-6,0ZM1395.75,1270.28c-2.35-1-12.27.06-9.75,2.7.68.71,5.7.64,7.57,1.95,3.71,2.59.61,8.39,5.21,11.01,3.06,1.74,5.62,2.52,9.22,2.05.7-5.95-.83-3.01-3.73-4.29-.26-.11-3.89-3.69-3.98-3.95-.64-1.89.09-3.94-.78-5.79-.11-.24-3.53-3.58-3.77-3.68ZM1584,1283c6.15-.09,12.33.09,18.49-.01l15.5-1.98c-6.26-1.99-13-.58-19.48-1.02-40.2-2.75-95.29-5.41-134.93-.9-.97.11-3.76.45-3.58,1.9,21.33,2.06,43.05.67,64.54.97,3.57.05,7.3,1.01,11.46,1.04,1.71,2.38,8.85.09,9.92,1.13.34.33-.34,2.29.65,2.97,1.07.73,3.35.43,4.61,1.01,3.96,1.82,2.11,5.13,3.09,7.65.38.99,6.81,5.97,8.39,6.04.66.03,7.22-2.45,5.33-3.8-10.14.05-6.88-3.11-8.04-9.29-.3-1.58-5.41-3.31-5.96-4.71,9.82-.65,20.43,1.29,29.99-1.01Z"/>
      <path class="cls-10" d="M1086,491c.03.33-.05.67,0,1l-192-1c63.98-.04,128.02.06,192,0Z"/>
      <path class="cls-13" d="M1179,932c1.45-6.31,13.95-10.81,19.42-9.96,8.79,1.37,8.13,12.9,1.58,13.96-2.65.43-7.26-3.43-10.56-3.93-2.66-.4-7.67-.33-10.44-.07Z"/>
      <path class="cls-13" d="M1269,916c-9.13.13-16.92,2.95-25,7-6.38-15.33,18.18-14.61,25-7Z"/>
      <path class="cls-13" d="M1208,944c-.42-4.45-.72-17.5,0-21.49.31-1.72,1.07-2.81,2.99-2.5,1.05,10.66,3.47,21.24,3.01,32-.6.31-.9,2.74-2.99,2-.9-3.99-2.61-5.77-3.01-10Z"/>
      <path class="cls-9" d="M1226.99,874.01c.68.35-.59,1.7-1.99.98-.68-.35.59-1.7,1.99-.98Z"/>
      <path class="cls-15" d="M1203.5,883c.65.33.65.67,0,1v-1Z"/>
      <path class="cls-3" d="M1387,1494c1.2-1.45,9.04.03,10.53-1.97l8.51-33.98,131.38-.1,8.61,35.02c1.98.21,9.98-.16,10.96,1.04.4,3.6-.87.94-3.37,1.05-6.93.28-4.31-1.05-4.63-1.05h-152c-.09,0,.27,1.57-.46,1.79l-9.54-1.79Z"/>
      <path class="cls-13" d="M1486,1372c38,11.55,89.53,32.02,120.76,55.95,1.35,1.03,6.63,2.14,6.21,4.55-.72,4.14-3.06-.07-3.27-.17-32.2-15.07-65.37-32.29-97.99-45.97-16.17-6.79-34.27-14.75-51.53-20.08-3.49-1.08-3.68,1.29-4.19-2.28,10.06.93,20.29,5.05,30,8Z"/>
      <path class="cls-13" d="M1256,1218c.46-1.88,1.65-9.64,2.01-10,.13-.13,3.81-.75,2.95,1.45l-13.96,70.56c-3.31-.5-5.95,1.53-6-4-.03-3.7,2.53-8.46,2.95-11.55,1.06-7.79.68-18.16,2.27-25.73.29-1.37,1.26-3.34,2.77-3.72l-.98,9c.21.28,1.28-.52,1.5-.98,1.37-2.83,3.37-12.96,4.48-17.02.75-2.74,1.33-5.25,2-8Z"/>
      <path class="cls-11" d="M1292,1296c1.71.11,5.93.37,7.08-.44s.75-3.38.93-3.57c.4-.41,9.22,3.68,8.32-3.67l3.67-4.32c-.38,2.93.73,7.08-.3,9.74-.1.26-3.69,3.85-3.95,3.95-2.89,1.14-6.72-1.71-5.75,3.3-1.87-.8-9.5-2.79-9.92-3.1-.33-.25-.06-1.34-.08-1.9Z"/>
      <path class="cls-11" d="M1324,1550c.6,3.99-4.9.86-7.08,2.45-1,.72-.62,3.03-1.06,3.42-.74.66-3.49-.22-3.87.13-.83.74,1.89,7.07-1.99,6-.97-6.91.41-9.62,3.99-15,3.39.91,7.01,2.19,10,3Z"/>
      <path class="cls-5" d="M319,818h19v-19.5c0-3.17,9-3.17,9,0v48c0,2.45-9,3.51-9,0v-19.5h-19v19.5c0,3.17-9,3.17-9,0v-48c0-3.17,9-3.17,9,0v19.5Z"/>
      <path class="cls-5" d="M266,798.5c.28-.99,2.35-2.25,3.53-2.47,3.26-.62,17.28-.4,20.5.44,9.82,2.56,12.72,15.46,8.53,23.59-6.4,12.42-21.02,5.86-23.13,8.88-1.68,4.25,1.37,16.61-1.84,19.16-2.8,2.21-7.6.31-7.6-2.59v-47ZM275,820c21.92,3.24,23.24-19.07,0-15v15Z"/>
      <path class="cls-5" d="M365.5,796h21c.29,0,4.26,2.44,5,3,11.51,8.64,6.71,27.47-7,29-2.27.25-12.5-.92-12.5,1.5v17c0,3.05-8,3.05-8,0v-49c0-.27,1.17-.99,1.5-1.5ZM372,820c6.55.12,16.68,1.6,17.07-7.52.46-10.93-17.07-9.35-17.07-6.98v14.5Z"/>
      <path class="cls-1" d="M1146,956c-.72,2.46,1.25,19.74,2.11,23.39.96,4.11,5.8,17.29,7.89,20.61l-61.55.05c-6.22-.16-2.53-7.62-2.41-11.51.24-7.59.89-20.01.05-27.12-.24-2.05-5.32-1.59,1.37-5.49l52.55.07Z"/>
      <path class="cls-18" d="M448.35,345.63c-7.71-4.17-10.99-9.18-21.81-8.64-14.13.7-27.97,14.45-10.24,22.2,12.9,5.64,26.99,4.17,39.03,13.97,13.71,11.17,11.18,31.39-3.8,39.86s-31.18,8.46-46.75.68c-3.28-1.64-12.06-7.79-12.72-11.26-.82-4.33-.36-7.65,4.5-8.41,6.44-1,8.82,3.71,13.57,6.32,10.98,6.04,28.22,7.84,37.38-2.34,1.11-1.24,3.31-4.01,3.47-5.56,1.4-14-28.16-15.8-36.97-18.98-13.71-4.94-23.19-15.46-18.74-30.7,4.9-16.78,27.87-22.1,43.15-18.7,3.46.77,19.83,9.37,21.08,11.91,3.36,6.82-3.7,13.67-11.15,9.64Z"/>
      <path class="cls-18" d="M536.35,345.63c-6.66-3.6-8.87-7.52-17.93-8.55-16.57-1.89-33.73,14.32-13.42,22.42,13.92,5.55,35.93,5.33,44.38,20.62,12.09,21.86-13.89,40.25-33.88,39.96-8.35-.12-28.48-7.73-34.02-14.06s-.33-14.5,8.47-11.47c2.37.81,4.55,4.05,6.69,5.31,10.45,6.13,31.35,8.94,39.36-2.35,12.78-18.02-25.54-20.72-34.7-24.31-15.14-5.94-25.46-18.34-16.13-34.51,11.65-20.17,41.81-19.19,58.15-5.51,9.57,8.02,1.69,17.15-6.98,12.46Z"/>
      <path class="cls-18" d="M333.77,323.28c10.57-1.08,24.22,2.26,32.72,8.73s4.86,17.93-5.78,14.77c-1.63-.48-6.17-4.21-8.71-5.28-15.8-6.61-37.98-.23-44.75,16.24-12.65,30.77,17.29,55.45,46.64,42.64,5.02-2.19,11.36-9.17,16.31-1.08,5.31,8.68-7.44,14.64-14.21,17.17-34.47,12.89-70.78-13.94-66.87-50.87,2.41-22.77,22.26-40.05,44.67-42.33Z"/>
      <path class="cls-17" d="M461.73,478.31c.18.08.1,1.14,1.09,1.61.68.32,2.05-.13,2.87.4.35.23,5.86,5.54,6.01,5.93,1.93,5.02-.77,11.85-4.03,15.4-4.24,1.44-7.65,3.61-12.96,2.31-.67-.16-.69-1.49-1.03-1.63-1.96-.78-3.77-.29-5.32-2.67-.5-.77-.22-2.18-.68-3.34-.14-.35-1.47-.37-1.63-1.03-.33-1.36-.33-7.24,0-8.59.16-.67,1.49-.69,1.63-1.03.49-1.23.87-4.78,2.61-5.35,1.54-.5,10.6-2.4,11.46-2.02Z"/>
      <path class="cls-5" d="M559.74,478.3c.73,2.7,3.97,1.45,6.28,3.19,4.02,3.02,4.78,10.15,3.72,14.77-.5,2.21-4.83,6.33-6.99,6.96-22.01,6.47-24.61-25.74-3.02-24.91Z"/>
      <path class="cls-11" d="M511.75,478.24c.19.1.06,1.25,1.06,1.69.72.31,2.06-.13,2.88.39.26.16,4.21,4.11,4.27,4.41.4,1.97.4,10.58,0,12.55-.09.46-6.23,5.93-6.98,6.16-13.62,4.22-21.87-9.97-14.53-21.02,1.67-2.51,11.89-4.91,13.3-4.18Z"/>
      <path class="cls-5" d="M359.6,242.44c5.17,3.31,6.01,14.21,2.43,18.82-.28.36-7.02,4.75-7.46,4.81-1.41.19-4.56.22-5.86-.1-.67-.16-.68-1.49-1.03-1.63-1.17-.47-2.61-.18-3.36-.66-13.06-8.27-.44-31.3,15.29-21.24Z"/>
      <path class="cls-17" d="M258,242c5.9,5.27,9.4,4.78,8.08,14.57-.24,1.79-1.64,1.16-2.04,2.2-.35.89.28,2.83-.07,3.19-.25.26-2.44-.22-3.68.33-.84.37-1.71,3.5-3.74,3.77-1.92.26-6.51.22-8.29-.36-1.1-.36-7.62-8.78-8-10.48-.99-4.48,1.83-10.09,5.74-12.22,3.51-1.9,8.12-.7,12-1Z"/>
      <path class="cls-11" d="M307,242c2,1.21,5.41,2.58,6.66,4.34.7.99.14,2.14.34,2.66,1.55,2.06-3.34,14.56-4,15-.44.29-9.28.22-10.57.08-1.6-.18-2.06-3.46-5.43-2.08-3.69-4.69-5-5.74-4.08-12.57.22-1.66,1.39-1.12,2-2.24.33-.61-.24-2.17.32-2.95.4-.56,1.64-.12,1.75-.23,5.55,1.09,7.08-3.45,13-2Z"/>
      <path class="cls-1" d="M314,249c.05.14,1.5.52,1.79,1.66.44,1.73.54,4.89.15,6.61-.08.37-4.04,6.06-4.3,6.35-.54.6-1.53.27-1.65.38s.46,1.72-.66,2.02c-1.43.38-10.01.28-11.87.05-2.32-.29-2.78-3.2-3.46-4.06,3.38-1.38,3.83,1.9,5.43,2.08,1.29.14,10.13.22,10.57-.08.66-.44,5.55-12.94,4-15Z"/>
      <path class="cls-20" d="M307,242c-5.92-1.45-7.45,3.09-13,2,.11-.11-.33-1.35.23-1.75.78-.56,2.31,0,2.95-.32,1.01-.52.88-1.73,1.51-1.89,1.48-.37,5.17-.27,6.67.15,1.27.36,1.4,1.68,1.63,1.81Z"/>
      <path class="cls-1" d="M246,243c-.12-3.49-.62-2.77,2.45-3,1.99-.15,7.41-.42,8.96-.05,1.18.28.41,1.9.59,2.05-3.88.3-8.49-.9-12,1Z"/>
      <path class="cls-22" d="M816,610v10h-295c.03-1.06.5-10,1-10h294Z"/>
      <path class="cls-22" d="M522,816c.26-1.58-.36-8.67,0-9,.38-.36,8.75-.41,10.46-1.04l283.55.04v10.01h-294.01Z"/>
      <path class="cls-1" d="M768,932v10h-245.5c-.18,0-2.39-2.22-2.49-2.52-.68-1.86,2-1.42,2.04-1.99.14-1.89-2.5-3.35-2.05-5.49h248Z"/>
      <path class="cls-1" d="M768,736v9h-246c-.62-1.26-.45-9,0-9h246Z"/>
      <rect class="cls-17" x="690" y="660" width="207" height="10"/>
      <path class="cls-10" d="M740,635v10h-192.5c-2.18,0-2.18-10,0-10h192.5Z"/>
      <rect class="cls-17" x="690" y="857" width="207" height="9"/>
      <path class="cls-10" d="M706,907v10h-183.5c-2.19,0-1.43-8.12-1.5-10h185Z"/>
      <path class="cls-1" d="M851.87,685.13l.12,10.86h-163.98c.57-3.26-1.89-10.19,2.49-11l161.38.14Z"/>
      <rect class="cls-17" x="547" y="832" width="193" height="9"/>
      <rect class="cls-17" x="522" y="711" width="184" height="9"/>
      <path class="cls-1" d="M849.5,882c.43-.05,1.38-1.37,2.49-1v11s-163.99,0-163.99,0v-10h161.5Z"/>
      <path class="cls-22" d="M880,710v10h-164c-.35-2.14-.21-10,2.5-10h161.5Z"/>
      <path class="cls-22" d="M880,907v10h-161.5c-2.19,0-1.43-8.12-1.5-10h163Z"/>
      <path class="cls-1" d="M863,760c.35.36-.36,8.12,1,10h-154v-10h153Z"/>
      <path class="cls-18" d="M522,695v-10h149.5c1.4,0,3.31,10,1,10h-150.5Z"/>
      <path class="cls-22" d="M673,882c.39.41,1.62,11.02-1.5,10-46.18-1.25-92.93,1.65-139.04.06-1.31-.05-9.1-.2-9.49-.47-1.88-1.3-.65-7.23-.97-9.58h151Z"/>
      <path class="cls-18" d="M547,770v-9h150.5c2.14,0,2.14,9,0,9h-150.5Z"/>
      <path class="cls-1" d="M1020,832v10h-134.5c-2.71,0-1.02-10-.5-10h135Z"/>
      <path class="cls-19" d="M1017.5,635c4.14.69,3.52,10,0,10h-131c-2.18,0-2.18-10,0-10h131Z"/>
      <path class="cls-1" d="M546,866c.32-2.37-.9-8.28.94-9.56l129.07-.44,1,10h-131Z"/>
      <rect class="cls-1" x="546" y="660" width="130" height="10"/>
      <path class="cls-1" d="M830.5,796c-3.53-.99-3.65-10.09.11-11.98l113.39.97v11.01h-113.51Z"/>
      <rect class="cls-22" x="752" y="635" width="123" height="10"/>
      <path class="cls-18" d="M684,795c.38-2.46-1.52-9.9,2.4-9.95l129.6.95v9.01h-132.01Z"/>
      <path class="cls-10" d="M932,745h-114c.32-2.37-.9-8.28.94-9.56l110.57-.44c4.25.76,2.01,6.72,2.5,10Z"/>
      <rect class="cls-18" x="752" y="832" width="123" height="9"/>
      <path class="cls-1" d="M996,720h-106v-10h104.5c2.19,0,1.43,8.12,1.5,10Z"/>
      <rect class="cls-10" x="891" y="610" width="84" height="10"/>
      <path class="cls-18" d="M989,660c.42.36,2.1,10-.5,10h-81.5v-10h82Z"/>
      <path class="cls-18" d="M990,857v9h-83c-.45,0-.62-7.74,0-9h83Z"/>
      <path class="cls-10" d="M914,695h-50v-10h48.5c2.75,0,.13,8.05,1.5,10Z"/>
      <rect class="cls-1" x="832" y="610" width="48" height="10"/>
      <path class="cls-10" d="M591,785v10.01c-5.6-1.11-43.35,1.53-44.94-.06-.38-.38-.55-9.94,1.44-9.94h43.5Z"/>
      <path class="cls-18" d="M992,736v9h-47.5c-2.08,0-1.5-7.33-1.5-9h49Z"/>
      <rect class="cls-10" x="477" y="685" width="26" height="10"/>
      <rect class="cls-10" x="503" y="760" width="26" height="10"/>
      <path class="cls-17" d="M503,882v10h-24.5c-2.19,0-1.43-8.13-1.5-10h26Z"/>
      <path class="cls-22" d="M503,645v-10h24.5c2.18,0,2.18,10,0,10h-24.5Z"/>
      <path class="cls-22" d="M503,907c-.32,2.37.9,8.28-.94,9.56-1.09.76-22.98.8-24.13,0-1.84-1.28-.62-7.23-.94-9.56h26Z"/>
      <path class="cls-22" d="M503,620h-26c.32-2.37-.9-8.28.94-9.56,1.09-.76,22.98-.8,24.13,0,1.84,1.28.62,7.23.94,9.56Z"/>
      <path class="cls-18" d="M503,670c.07-1.87-.69-10,1.5-10h23c2.18,0,2.18,10,0,10h-24.5Z"/>
      <path class="cls-22" d="M503,816h-26c.12-3.17-1.14-8.67,2.7-9.8,1.97-.58,21.35-.47,22.36.24,1.84,1.28.62,7.23.94,9.56Z"/>
      <path class="cls-22" d="M503,720h-26c.12-3.17-1.14-8.67,2.7-9.8,1.97-.58,21.35-.47,22.36.24,1.84,1.28.62,7.23.94,9.56Z"/>
      <path class="cls-18" d="M528,866h-25v-9h24.5c.21,0,1.13-1.5,1.49-1l-.99,10Z"/>
      <path class="cls-18" d="M503,736v9h-24.5c-2.08,0-1.5-7.33-1.5-9h26Z"/>
      <path class="cls-22" d="M529,795h-26v-9h24.5c2.08,0,1.5,7.33,1.5,9Z"/>
      <path class="cls-18" d="M529,832c-.26,2.22.83,7.33-.94,8.56-.96.67-21.65.88-23.42.3-2.78-.91-1.35-6.41-1.64-8.86h26Z"/>
      <path class="cls-1" d="M521.78,564.28l12.23,13.21c-2.63,1.04-12,12.66-13.49,12.62-2.01-.06-4.45-1.29-4.54-3.6-.03-.68,9.41-6.83,9.1-9.93-4.47-2.11-13.68-13.48-3.3-12.29Z"/>
      <path class="cls-1" d="M493.89,564.11c1.15.73.77,3.82.11,5.14-.79,1.55-7.71,6.32-7.97,6.77-.12.21-.12,1.75,0,1.96.26.45,7.68,5.57,7.94,6.74.36,1.63-.07,3.57.04,5.28-6.54,1.3-4.28-1.68-6.28-3.72-2.58-2.63-9.01-5.43-8.23-10.43.12-.78,10.04-11.24,10.77-11.54.98-.4,2.81-.71,3.63-.19Z"/>
      <path class="cls-1" d="M513.66,573.68c-1.56,3.39-4.18,8.52-5.95,11.57s-.55,5.75-5.7,4.76c-1.32-1.24,3.11-14.76,4.1-17.2.25-.62,3.7-5.18,3.86-5.58.7-1.82-1.3-4.68,3.42-3.1,2.82.94,1.26,7.42.28,9.56Z"/>
      <path class="cls-12" d="M1043.99,692.01c1.21,1.17-5.42,8.66-7.99,7.99-.05-4.66,3.73-7.47,7.99-7.99Z"/>
      <path class="cls-12" d="M1053.01,668c-.66-4.04-2.2-8.3.48-11.99,2.26,2.49,2.75,10.18-.48,11.99Z"/>
      <path class="cls-3" d="M1072,664.01c1.19,1.05-6.91,9.17-7.99,7.99-1.22-2.73,6.22-9.56,7.99-7.99Z"/>
      <path class="cls-3" d="M1044,671.99c-1.77,1.57-9.21-5.26-7.99-7.99,1.08-1.18,9.18,6.94,7.99,7.99Z"/>
      <path class="cls-3" d="M1079,681.01c1.48,1.4-.1,1.82-1.48,1.99-2.96.38-6.47-.27-9.51,0-.97-2.39,3.35-2.9,4.63-2.93,1.04-.03,6.13.73,6.36.95Z"/>
      <path class="cls-7" d="M1039.01,681.01c1.61,1.29-.11,1.82-1.49,2-2.96.38-6.47-.27-9.51,0-.46-2.79.55-1.71,2.34-2.15,3.41-.83,5.27-.24,8.66.16Z"/>
      <path class="cls-15" d="M1292,1095c26.19-4.41,53.63-24.41,68.81-45.69l9.18-14.3c-4.81,39.99-29.78,79.3-72.99,83-.13-4.84-1.84-9.38-3-14-.74-2.95-1.49-6-2-9Z"/>
      <path class="cls-13" d="M1215,966l4.01,35,12.98-6,2.01,22c5.38.38,11.44-1.84,16.06-4.45,3.04-1.71,10.22-9.18,11.54-9.5.94-.23,4.16,3.78,5.41,4.95v1c.13.6-.15,1.44,0,2-6.32,1.4-13.99,7.95-12,15-5.97-.74-9.09-3.46-12.59-3.99s-8.41,2.02-12.4.98c-.1-6.19-2.98-11.64-2.02-17.98-1.38-1.43-10.77,6.66-13.99,5l-3.01-18c3.19-9.06,3.53-16.62,4-26Z"/>
      <path class="cls-18" d="M1292,1095c.51,3,1.26,6.05,2,9-5.47,1.79-11.35.75-17.01.99.42,9.09-.56,18.45,0,27.52.18,2.98,1.68,1.26,3,.48-2.46,2.25-4.98,6.01-8,7-1.21-12.69,1.59-28.2.08-40.53-.27-2.19-2.39-1.66-3.08-3.47,7.41.42,15.7.23,23-1Z"/>
      <path class="cls-20" d="M1267,1011c.42,1.57,1.9,2.61,2.05,5.54.41,8.18-4.04,10.6-11.63,10.51-1.43-.02-2.17-1.02-2.42-1.05-1.99-7.05,5.68-13.6,12-15Z"/>
      <path class="cls-13" d="M1276.99,1027.01c4.2,10.3-14.48,12.79-16.98,6.48-1.16-2.92,6.21-.83,7.34-.87,5.89-.17,4.98-3.85,9.65-5.61Z"/>
      <path class="cls-24" d="M1396,1136c-.25.79.31,2.17-.3,3.71-.13.33-4.59,4.44-5.7,4.29.96-3.01,1.34-3.16,1.96-4.78.97-2.49-1.99-3.85,4.04-3.22Z"/>
      <path class="cls-20" d="M1267,1009v-1c1.34,1.26-.11.5,0,1Z"/>
      <path class="cls-9" d="M1273,922c1.92.48,7.27,2.36,9.14,3.4,1.57.88,11.79,10.78,12.56,12.37,1.17,2.45.8,3.79,1.38,5.47.34.97,1.77.41,2.01,2.19.34,2.59.34,10.54,0,13.14-.24,1.86-1.89,1.3-2.07,2.11-.97,4.47-.92,6.28-4.06,10.56-3.07,4.19-6.44,4.98-9.64,7.08-.85.55-2.25,3.48-3.05,3.63-2.4.47-5.21-.32-7.72.09-2.81.47-4.37,2.39-8.09,2.05-1.84-.16-1.32-1.92-2.14-2.09-4.43-.95-8.01-1.53-12.46-4.15-5.71-3.36-8.84-11.87-11.19-17.54-.15-.35-1.47-.36-1.63-1.03-.48-1.95-.28-9.43.03-11.74s5.9-14.42,7.21-15.36c.62-.45,2.29.06,2.6-.29.59-.67-.35-2.94.28-3.74.19-.25,4.74-1.57,5.85-2.17,6.53,1.24,20.18,6.11,21-4ZM1267.72,967.71c8.29-6.75,1.19-31.01-11.7-25.19-6.88,3.11-4.58,22.64.55,27.42,1.38,1.28,3.71,1.43,4.96,3.05l-1.51-3.98c2.47-.04,5.62.41,7.71-1.3Z"/>
      <path class="cls-9" d="M1176,940c5.21,7.14,10.57,1.77,17,0,.36.19,1.64-.34,2.67.33.47.31,7.71,7.51,8.01,7.98,2.05,3.21,3.51,10.88,4.54,14.95,1.24,4.9,2.63,7.43,1.73,13.22-.34,2.18-1.84,3.08-1.95,3.52,2.55-6.71-.82-25.07-9.75-25.82-12.43-1.04-12.2,25.07-1.48,27.62,4.26,1.01,8.32-3.64,6.72,2.18,1.02-.67,4.18-3.1,4.51-3.98-.28,1.04.13,2.48-.49,3.98-.38.93-3.57,7.34-3.83,7.71-.16.23-3.75,3.84-3.99,3.99-.75.48-2.19.19-3.36.66-.34.14-.36,1.46-1.03,1.63-1.89.47-6.5.19-8.57-.21-3.38-.64-4.01-2.76-5.73-3.76l-9-50c2.07-2.75.7-1.98,4-4Z"/>
      <path class="cls-20" d="M1172,944l9,50c-2.77-1.61-6.17-2.98-8.68-6.31-.57-.76-.07-2.48-.65-3.37s-3.47-2.23-3.64-3.04c-.32-1.47.27-3.16-.05-4.59-.17-.76-1.78-.62-1.96-1.37-.43-1.8-.43-20.84,0-22.61.09-.35,3.3-4.52,3.89-5.53.35-.59-.22-2.19.32-2.95.39-.55,1.69-.12,1.77-.22Z"/>
      <path class="cls-13" d="M1273,922c-.82,10.11-14.47,5.24-21,4,7.88-4.21,11.43-6.38,21-4Z"/>
      <path class="cls-13" d="M1193,940c-6.43,1.77-11.79,7.14-17,0,.46-.28.87-1.68,2.22-2.23,3.97-1.61,8.58-1.47,12.56,0,1.34.49,1.9,2.07,2.22,2.23Z"/>
      <path class="cls-11" d="M1327.66,1615.38c.32.18.47,1.52,1.56,1.94,6.57,2.54,6.56-2.54,12.78-1.31l-4.31,5.67c-2.8-.68-3.99,2.19-4.36,2.3-3.36,1-3.24-1.47-3.65-1.65-1-.45-4.84-2.37-5.13-2.41-4.65-.75-5.25,3.59-10.55,2.07-3.18-3.3,7.59-10.05,13.66-6.62Z"/>
      <path class="cls-11" d="M1265,1584c-9.62,3.61-6,.31-12.75-1.76-4.33-1.32-5.07,3.44-10.24,1.75l4.67-5.82c4.05-.4,8.19-.97,11.32,1.82.13.11-.3,1.37.17,1.78.94.8,4.3-.02,5.82.22.03-.66-.02-1.34,0-1.99,3.21.42,2.32,1.18,1,4Z"/>
      <path class="cls-1" d="M1264,1580c.04-1.02-.21-3.71,0-3.99,1.48-1.98,6,5.56,3.96,7.98-.3.35-2.3-.23-2.97.02,1.32-2.82,2.21-3.58-1-4-.03.66.03,1.33,0,1.99-1.52-.24-4.88.58-5.82-.22-.48-.4-.05-1.66-.17-1.78,1.94.16,4.13-.24,6,0Z"/>
      <path class="cls-11" d="M1599.74,1614.31c.23.13.22,1.2.58,1.36,1.1.49,2.23.19,3.36.67.34.14.35,1.46,1.02,1.63,4.61,1.19,6.5-1.73,9.78-2s-.77,5.97-1.13,6.07c-7.83,2.28-13.35-3.35-18.66-2.01-.41.1-1.93,3.63-5.69,1.96-.03-3.91,7.69-9.45,10.74-7.68Z"/>
      <path class="cls-13" d="M1536,1283c-4.16-.03-7.88-.99-11.46-1.04-21.49-.3-43.21,1.09-64.54-.97-.18-1.46,2.61-1.79,3.58-1.9,39.63-4.5,94.73-1.85,134.93.9,6.48.44,13.22-.97,19.48,1.02l-15.5,1.98c-6.16.1-12.34-.08-18.49.01-15.96.23-32.04.13-48,0Z"/>
      <path class="cls-13" d="M1468,1312c-3.29-.09-9.65,1.21-11.45-2.05l-16.66-51.14c-4.99-7.55-12.79-16.39-12.39-25.81l4.52,8.99c2.55.4,2.11-.43,2-2.5-.5-9.12-8.42-21.79-8.01-31.5,3.04-.55,1.53.91,2.09,2.36,10.76,28.25,22.11,58.09,29.86,86.36,1.07,3.91-.26,11.9,4.76,13.03,3.66.83,5.12-1.3,5.29,2.25ZM1434.99,1244.99c.72-1.4-.63-2.67-.98-1.99-.72,1.4.63,2.67.98,1.99Z"/>
      <path class="cls-11" d="M1584,1283c-9.56,2.3-20.17.36-29.99,1.01.55,1.39,5.66,3.13,5.96,4.71,1.15,6.18-2.1,9.33,8.04,9.29,1.89,1.35-4.67,3.83-5.33,3.8-1.59-.07-8.01-5.05-8.39-6.04-.98-2.52.87-5.83-3.09-7.65-1.26-.58-3.54-.27-4.61-1.01-.99-.68-.31-2.65-.65-2.97-1.08-1.04-8.21,1.25-9.92-1.13,15.96.13,32.04.23,48,0Z"/>
      <path class="cls-11" d="M1395.75,1270.28c.24.1,3.66,3.44,3.77,3.68.87,1.85.13,3.9.78,5.79.09.27,3.72,3.84,3.98,3.95,2.9,1.28,4.43-1.66,3.73,4.29-3.61.46-6.17-.31-9.22-2.05-4.6-2.62-1.5-8.42-5.21-11.01-1.87-1.31-6.89-1.24-7.57-1.95-2.53-2.65,7.39-3.7,9.75-2.7Z"/>
      <path class="cls-11" d="M1539.99,1204c.52,2.09,1.18,10.85-.09,11.92-.51.43-2.39-.25-3.13.12-.99.5-.78,1.78-1.47,1.94-1.55.36-3.11-.25-5.05.33-1.33.4-3.62,7-4.75,8.68-2.89-1.22-1.37-10.43.41-12.35,2.31-2.49,9.16.72,11.82-6.41.77-2.07-1-4.96,2.26-4.25Z"/>
      <path class="cls-11" d="M1405.99,1182.01c-.33,4,1.62,9.9-2.83,11.87-5.16,2.29-13.09,1.16-11.16,9.62-.19,1.95-4.3-1.68-4.02-2.99.19-.88,1.78-.18,2.03-1.15.48-1.85-.58-6.34,0-7.35.07-.12,1.63.74,2.73.32,1.35-.52,2.69-3.71,7.27-2.81l5.98-7.51Z"/>
      <path class="cls-11" d="M1468,1154c.67.51,2.65.19,3.51,1.98.99,2.06.15,5.55,1.42,7.41,1.14,1.68,5.86,2.39,7.56,2.62,4.84.65-.76,3.08-3.97,3.07-2.13,0-8.06-1.59-8.47-3.81-1.3-7.11,2.32-4.87-4.04-9.28-.62-.43-1.14-1.11-1.99-1.01v-.98s5.99-.01,5.99-.01Z"/>
      <path class="cls-11" d="M1481,1246c-.52.17-1.59-.32-2.28.02-1.35.68-.19,2.75-5.24,2.04-2.27-.32-2.88-4.89-10.01-4.15-1.35.14-4.04,4.63-5.46,3.08-1.25-1.36,4.3-6.87,4.72-6.96,3.48-.7,8.62-.4,11.27,1.96.27.24-.96,1.74,1.45,2.08,3.83.54,4.18.55,4.55-2.08.6.06,1.83-.17,2,0,.14.14-.01,1.42,0,2,0,.33.07.76,0,1l-1,1Z"/>
      <path class="cls-11" d="M1256,1218c-.67,2.75-1.25,5.26-2,8-6.42-1.6-10.08,4.07-10.01,9.99l-2-5-2.01-.49c2.4-.89,3.07-6.65,5.98-8.02,1.84-.86,3.71-.11,5.29-.53,1.29-.34,2.39-4.47,4.74-3.95Z"/>
      <path class="cls-11" d="M1320,1230c2.24,2,5.02,2.41,8,2-.14,1.42-.11,2.77-1,4-2.15.18-6.34.35-8.28-.04-.86-.18-2.74-3.87-3.43-3.99-1.96-.35-2.76.96-3.29,1.04-1.26.18-2.71-.11-4,0,2.52-4.68,7.53-4.65,12-2.99Z"/>
      <path class="cls-1" d="M1312,1233c1.46,5.66-6.86,2.59-7.93.94s4.16-4.39,4.65-5.9c3.01.37,8-.74,10.61-.06,1.14.3.54,1.91.66,2.02-4.47-1.66-9.48-1.69-12,2.99,1.29-.1,2.74.19,4,0Z"/>
      <path class="cls-1" d="M1328,1232c.31-3.18-1.34-4.36,2.55-4.06.93.07,4.21,2.71,3.43,4.04-3.96,1.3-2.38,3.62-6.98,4.02.89-1.23.86-2.58,1-4Z"/>
      <path class="cls-11" d="M1202,1226c-1.99,3.07-1.92,7.17-6,8,.77-4.19-.91-8.61,6-8Z"/>
      <path class="cls-1" d="M1464,1156l-4.03-3.53c1.99-.52,5.53-.98,7.38-.49,1.12.29.54,1.94.65,2.02h-6s0,.99,0,.99c.85-.09,1.37.58,1.99,1.01Z"/>
      <path class="cls-20" d="M1480,1242c.49-3.47,1.02-1.71,5-1.99-1.13,1.93-.32,4.69-3,3.99-.01-.58.14-1.86,0-2-.17-.17-1.4.06-2,0-.37,2.63-.73,2.62-4.55,2.08-2.41-.34-1.18-1.84-1.45-2.08,1.97.14,4.05-.2,6,0Z"/>
      <path class="cls-20" d="M1481,1246l1-1c-.23.73-.24.76-1,1Z"/>
      <path class="cls-12" d="M275,820v-15c23.24-4.07,21.92,18.24,0,15Z"/>
      <path class="cls-12" d="M372,820v-14.5c0-2.37,17.53-3.95,17.07,6.98-.39,9.12-10.52,7.64-17.07,7.52Z"/>
      <path class="cls-18" d="M1032.69,1069.71c-6.83,8.66-15.07-2.57-22.44-4.46-36.88-9.42-60.47,36.7-29.59,58.59,9.02,6.39,24.49,7.82,34.56,3.09,1.28-.6,3.86-3.64,6.55-4.66,9.85-3.74,16.57,4.85,8.72,12.71-10.34,10.35-30.78,11.8-44.27,8.3-33.31-8.67-46.52-50.23-24.24-76.8,13.68-16.31,38.3-22.54,58.72-13.67,5.53,2.4,17.62,9.77,12,16.9Z"/>
      <path class="cls-22" d="M1079,1106c-1.25-1.44-18.49,1.84-24.27-1.99-1.43-.95-1.91-5.71-1.72-7.42,1.14-9.81,19.08-5.77,25.99-6.59,1.23-7.69-4.15-24.4,6.76-25.83,12.04-1.57,8.94,18.71,9.23,25.83,6.79.36,25.34-2.45,26,7.57.71,10.81-19.29,8.2-26,8.42-.69,7.19,3.33,24.9-7.63,25.68-2.79.2-8.37-2.72-8.37-5.18v-20.5Z"/>
      <path class="cls-18" d="M1201.75,1103.75c-4.63,5.1-20.3-.18-23.76,2.74-4.21,3.55,5.41,26.13-9.35,25.18-10.25-.66-5.64-18.87-6.63-25.68-8.55-.66-28.8,3.87-25.98-10.47,1.71-8.7,21.7-3.63,25.04-5.96,4.24-2.95-5.51-26.21,9.3-25.24,10.91.72,4.87,18.67,7.1,25.72,1.45,1.6,3.72-.04,5.99-.1,4.92-.11,19.04-.92,20.3,5.66.19,1-1.26,7.32-2.01,8.14Z"/>
      <path class="cls-15" d="M1267.72,967.71c-2.09,1.7-5.24,1.26-7.71,1.3l1.51,3.98c-1.25-1.62-3.58-1.77-4.96-3.05-5.13-4.78-7.43-24.31-.55-27.42,12.9-5.82,19.99,18.43,11.7,25.19Z"/>
      <path class="cls-13" d="M1208,980c-.33.88-3.49,3.31-4.51,3.98,1.6-5.82-2.46-1.17-6.72-2.18-10.72-2.55-10.95-28.66,1.48-27.62,8.93.75,12.3,19.11,9.75,25.82Z"/>
      <path class="cls-19" d="M1434.99,1244.99c-.35.68-1.7-.59-.98-1.99.35-.68,1.7.59.98,1.99Z"/>
    </g>
  </g>
</svg>